<mxfile host="65bd71144e" pages="10">
    <diagram name="algorithm1" id="70NYDVV-KInY2Fs7xTaa">
        <mxGraphModel dx="536" dy="750" grid="1" gridSize="10" guides="1" tooltips="1" connect="1" arrows="1" fold="1" page="0" pageScale="1" pageWidth="1169" pageHeight="827" background="none" math="0" shadow="0">
            <root>
                <mxCell id="AKgHMmGA_sSYwvesjDs2-0"/>
                <mxCell id="AKgHMmGA_sSYwvesjDs2-1" parent="AKgHMmGA_sSYwvesjDs2-0"/>
                <mxCell id="AKgHMmGA_sSYwvesjDs2-2" style="rounded=0;orthogonalLoop=1;jettySize=auto;html=1;exitX=1;exitY=0.5;exitDx=0;exitDy=0;entryX=0;entryY=0.5;entryDx=0;entryDy=0;strokeWidth=2;endArrow=block;endFill=1;strokeColor=#FF0000;" parent="AKgHMmGA_sSYwvesjDs2-1" source="AKgHMmGA_sSYwvesjDs2-3" target="AKgHMmGA_sSYwvesjDs2-8" edge="1">
                    <mxGeometry relative="1" as="geometry"/>
                </mxCell>
                <mxCell id="AKgHMmGA_sSYwvesjDs2-3" value="&lt;font style=&quot;font-size: 24px;&quot;&gt;1&lt;/font&gt;" style="rounded=0;whiteSpace=wrap;html=1;fillColor=#FFCCCC;strokeColor=#FF0000;fontColor=#FF0000;strokeWidth=2;" parent="AKgHMmGA_sSYwvesjDs2-1" vertex="1">
                    <mxGeometry x="77.5" y="40" width="65" height="40" as="geometry"/>
                </mxCell>
                <mxCell id="AKgHMmGA_sSYwvesjDs2-4" value="" style="endArrow=none;html=1;rounded=0;strokeWidth=2;exitX=0.25;exitY=0;exitDx=0;exitDy=0;strokeColor=#FF0000;edgeStyle=orthogonalEdgeStyle;" parent="AKgHMmGA_sSYwvesjDs2-1" source="AKgHMmGA_sSYwvesjDs2-3" target="AKgHMmGA_sSYwvesjDs2-6" edge="1">
                    <mxGeometry width="50" height="50" relative="1" as="geometry">
                        <mxPoint x="167.5" y="60" as="sourcePoint"/>
                        <mxPoint x="170" as="targetPoint"/>
                        <Array as="points">
                            <mxPoint x="94" y="30"/>
                        </Array>
                    </mxGeometry>
                </mxCell>
                <mxCell id="AKgHMmGA_sSYwvesjDs2-5" value="" style="endArrow=block;html=1;rounded=0;strokeWidth=2;entryX=0;entryY=0.5;entryDx=0;entryDy=0;endFill=1;strokeColor=#FF0000;edgeStyle=orthogonalEdgeStyle;exitX=0.719;exitY=0.585;exitDx=0;exitDy=0;exitPerimeter=0;" parent="AKgHMmGA_sSYwvesjDs2-1" source="AKgHMmGA_sSYwvesjDs2-6" target="AKgHMmGA_sSYwvesjDs2-3" edge="1">
                    <mxGeometry width="50" height="50" relative="1" as="geometry">
                        <mxPoint x="50" y="-10" as="sourcePoint"/>
                        <mxPoint x="217.5" y="10" as="targetPoint"/>
                        <Array as="points">
                            <mxPoint x="60" y="30"/>
                            <mxPoint x="60" y="60"/>
                        </Array>
                    </mxGeometry>
                </mxCell>
                <mxCell id="AKgHMmGA_sSYwvesjDs2-6" value="" style="shape=waypoint;sketch=0;fillStyle=solid;size=6;pointerEvents=1;points=[];fillColor=none;resizable=0;rotatable=0;perimeter=centerPerimeter;snapToPoint=1;strokeWidth=0;strokeColor=none;" parent="AKgHMmGA_sSYwvesjDs2-1" vertex="1">
                    <mxGeometry x="77.5" y="20" width="20" height="20" as="geometry"/>
                </mxCell>
                <mxCell id="AKgHMmGA_sSYwvesjDs2-7" style="edgeStyle=orthogonalEdgeStyle;rounded=0;orthogonalLoop=1;jettySize=auto;html=1;exitX=1;exitY=0.5;exitDx=0;exitDy=0;entryX=0;entryY=0.5;entryDx=0;entryDy=0;strokeColor=#FF8000;endArrow=block;endFill=1;strokeWidth=2;" parent="AKgHMmGA_sSYwvesjDs2-1" source="AKgHMmGA_sSYwvesjDs2-8" target="AKgHMmGA_sSYwvesjDs2-10" edge="1">
                    <mxGeometry relative="1" as="geometry"/>
                </mxCell>
                <mxCell id="AKgHMmGA_sSYwvesjDs2-8" value="&lt;font style=&quot;font-size: 24px;&quot;&gt;2&lt;/font&gt;" style="rounded=0;whiteSpace=wrap;html=1;fillColor=#FFE6CC;strokeColor=#FF8000;fontColor=#FF8000;strokeWidth=2;" parent="AKgHMmGA_sSYwvesjDs2-1" vertex="1">
                    <mxGeometry x="180" y="40" width="65" height="40" as="geometry"/>
                </mxCell>
                <mxCell id="AKgHMmGA_sSYwvesjDs2-9" style="edgeStyle=orthogonalEdgeStyle;rounded=0;orthogonalLoop=1;jettySize=auto;html=1;exitX=1;exitY=0.5;exitDx=0;exitDy=0;entryX=0;entryY=0.5;entryDx=0;entryDy=0;strokeWidth=2;strokeColor=#FFFF00;endArrow=block;endFill=1;" parent="AKgHMmGA_sSYwvesjDs2-1" source="AKgHMmGA_sSYwvesjDs2-10" target="AKgHMmGA_sSYwvesjDs2-12" edge="1">
                    <mxGeometry relative="1" as="geometry"/>
                </mxCell>
                <mxCell id="AKgHMmGA_sSYwvesjDs2-10" value="&lt;span style=&quot;font-size: 24px;&quot;&gt;3&lt;/span&gt;" style="rounded=0;whiteSpace=wrap;html=1;fillColor=#FFFFCC;strokeColor=#FFFF00;fontColor=#FFFF00;strokeWidth=2;" parent="AKgHMmGA_sSYwvesjDs2-1" vertex="1">
                    <mxGeometry x="280" y="40" width="65" height="40" as="geometry"/>
                </mxCell>
                <mxCell id="AKgHMmGA_sSYwvesjDs2-11" style="edgeStyle=orthogonalEdgeStyle;rounded=0;orthogonalLoop=1;jettySize=auto;html=1;exitX=1;exitY=0.5;exitDx=0;exitDy=0;strokeWidth=2;endArrow=block;endFill=1;strokeColor=#80FF00;entryX=0;entryY=0.5;entryDx=0;entryDy=0;" parent="AKgHMmGA_sSYwvesjDs2-1" source="AKgHMmGA_sSYwvesjDs2-12" target="AKgHMmGA_sSYwvesjDs2-13" edge="1">
                    <mxGeometry relative="1" as="geometry">
                        <mxPoint x="470" y="90" as="targetPoint"/>
                    </mxGeometry>
                </mxCell>
                <mxCell id="AKgHMmGA_sSYwvesjDs2-12" value="&lt;span style=&quot;font-size: 24px;&quot;&gt;4&lt;/span&gt;" style="rounded=0;whiteSpace=wrap;html=1;fillColor=#E6FFCC;strokeColor=#80FF00;fontColor=#80FF00;strokeWidth=2;" parent="AKgHMmGA_sSYwvesjDs2-1" vertex="1">
                    <mxGeometry x="380" y="40" width="65" height="40" as="geometry"/>
                </mxCell>
                <mxCell id="AKgHMmGA_sSYwvesjDs2-13" value="" style="ellipse;whiteSpace=wrap;html=1;aspect=fixed;strokeWidth=2;fillColor=#E6E6E6;strokeColor=#000000;" parent="AKgHMmGA_sSYwvesjDs2-1" vertex="1">
                    <mxGeometry x="480" y="45" width="30" height="30" as="geometry"/>
                </mxCell>
            </root>
        </mxGraphModel>
    </diagram>
    <diagram name="algorithm2" id="YUkXy-pPTdoFQoiqYWZm">
        <mxGraphModel dx="536" dy="750" grid="1" gridSize="10" guides="1" tooltips="1" connect="1" arrows="1" fold="1" page="0" pageScale="1" pageWidth="1169" pageHeight="827" background="none" math="0" shadow="0">
            <root>
                <mxCell id="9PvemCOWOFsMxjhAVt44-0"/>
                <mxCell id="9PvemCOWOFsMxjhAVt44-1" parent="9PvemCOWOFsMxjhAVt44-0"/>
                <mxCell id="9PvemCOWOFsMxjhAVt44-14" style="rounded=0;orthogonalLoop=1;jettySize=auto;html=1;exitX=1;exitY=0.5;exitDx=0;exitDy=0;strokeWidth=2;endArrow=block;endFill=1;strokeColor=#FF0000;entryX=0.5;entryY=0;entryDx=0;entryDy=0;edgeStyle=orthogonalEdgeStyle;" parent="9PvemCOWOFsMxjhAVt44-1" source="9PvemCOWOFsMxjhAVt44-15" target="9PvemCOWOFsMxjhAVt44-22" edge="1">
                    <mxGeometry relative="1" as="geometry">
                        <mxPoint x="210" y="170" as="targetPoint"/>
                    </mxGeometry>
                </mxCell>
                <mxCell id="9PvemCOWOFsMxjhAVt44-15" value="&lt;font style=&quot;font-size: 24px;&quot;&gt;1&lt;/font&gt;" style="rounded=0;whiteSpace=wrap;html=1;fillColor=#FFCCCC;strokeColor=#FF0000;fontColor=#FF0000;strokeWidth=2;" parent="9PvemCOWOFsMxjhAVt44-1" vertex="1">
                    <mxGeometry x="180" y="150" width="65" height="40" as="geometry"/>
                </mxCell>
                <mxCell id="9PvemCOWOFsMxjhAVt44-16" value="" style="endArrow=none;html=1;rounded=0;strokeWidth=2;exitX=0.25;exitY=0;exitDx=0;exitDy=0;strokeColor=#FF0000;edgeStyle=orthogonalEdgeStyle;" parent="9PvemCOWOFsMxjhAVt44-1" source="9PvemCOWOFsMxjhAVt44-15" edge="1">
                    <mxGeometry width="50" height="50" relative="1" as="geometry">
                        <mxPoint x="270" y="170" as="sourcePoint"/>
                        <mxPoint x="190" y="140" as="targetPoint"/>
                        <Array as="points">
                            <mxPoint x="196" y="140"/>
                        </Array>
                    </mxGeometry>
                </mxCell>
                <mxCell id="9PvemCOWOFsMxjhAVt44-17" value="" style="endArrow=block;html=1;rounded=0;strokeWidth=2;entryX=0;entryY=0.5;entryDx=0;entryDy=0;endFill=1;strokeColor=#FF0000;edgeStyle=orthogonalEdgeStyle;exitX=0.719;exitY=0.585;exitDx=0;exitDy=0;exitPerimeter=0;" parent="9PvemCOWOFsMxjhAVt44-1" target="9PvemCOWOFsMxjhAVt44-15" edge="1">
                    <mxGeometry width="50" height="50" relative="1" as="geometry">
                        <mxPoint x="190" y="140" as="sourcePoint"/>
                        <mxPoint x="320" y="120" as="targetPoint"/>
                        <Array as="points">
                            <mxPoint x="162.5" y="140"/>
                            <mxPoint x="162.5" y="170"/>
                        </Array>
                    </mxGeometry>
                </mxCell>
                <mxCell id="9PvemCOWOFsMxjhAVt44-19" style="edgeStyle=orthogonalEdgeStyle;rounded=0;orthogonalLoop=1;jettySize=auto;html=1;exitX=1;exitY=0.5;exitDx=0;exitDy=0;entryX=0.5;entryY=1;entryDx=0;entryDy=0;strokeColor=#FF8000;endArrow=block;endFill=1;strokeWidth=2;" parent="9PvemCOWOFsMxjhAVt44-1" source="9PvemCOWOFsMxjhAVt44-20" target="9PvemCOWOFsMxjhAVt44-22" edge="1">
                    <mxGeometry relative="1" as="geometry"/>
                </mxCell>
                <mxCell id="9PvemCOWOFsMxjhAVt44-20" value="&lt;font style=&quot;font-size: 24px;&quot;&gt;2&lt;/font&gt;" style="rounded=0;whiteSpace=wrap;html=1;fillColor=#FFE6CC;strokeColor=#FF8000;fontColor=#FF8000;strokeWidth=2;" parent="9PvemCOWOFsMxjhAVt44-1" vertex="1">
                    <mxGeometry x="180" y="230" width="65" height="40" as="geometry"/>
                </mxCell>
                <mxCell id="9PvemCOWOFsMxjhAVt44-21" style="edgeStyle=orthogonalEdgeStyle;rounded=0;orthogonalLoop=1;jettySize=auto;html=1;exitX=1;exitY=0.5;exitDx=0;exitDy=0;entryX=0;entryY=0.5;entryDx=0;entryDy=0;strokeWidth=2;strokeColor=#FFFF00;endArrow=block;endFill=1;" parent="9PvemCOWOFsMxjhAVt44-1" source="9PvemCOWOFsMxjhAVt44-22" target="9PvemCOWOFsMxjhAVt44-24" edge="1">
                    <mxGeometry relative="1" as="geometry"/>
                </mxCell>
                <mxCell id="9PvemCOWOFsMxjhAVt44-22" value="&lt;span style=&quot;font-size: 24px;&quot;&gt;3&lt;/span&gt;" style="rounded=0;whiteSpace=wrap;html=1;fillColor=#FFFFCC;strokeColor=#FFFF00;fontColor=#FFFF00;strokeWidth=2;" parent="9PvemCOWOFsMxjhAVt44-1" vertex="1">
                    <mxGeometry x="280" y="190" width="65" height="40" as="geometry"/>
                </mxCell>
                <mxCell id="9PvemCOWOFsMxjhAVt44-23" style="edgeStyle=orthogonalEdgeStyle;rounded=0;orthogonalLoop=1;jettySize=auto;html=1;exitX=1;exitY=0.5;exitDx=0;exitDy=0;strokeWidth=2;endArrow=block;endFill=1;strokeColor=#80FF00;entryX=0;entryY=0.5;entryDx=0;entryDy=0;" parent="9PvemCOWOFsMxjhAVt44-1" source="9PvemCOWOFsMxjhAVt44-24" target="9PvemCOWOFsMxjhAVt44-25" edge="1">
                    <mxGeometry relative="1" as="geometry">
                        <mxPoint x="470" y="240" as="targetPoint"/>
                    </mxGeometry>
                </mxCell>
                <mxCell id="9PvemCOWOFsMxjhAVt44-24" value="&lt;span style=&quot;font-size: 24px;&quot;&gt;4&lt;/span&gt;" style="rounded=0;whiteSpace=wrap;html=1;fillColor=#E6FFCC;strokeColor=#80FF00;fontColor=#80FF00;strokeWidth=2;" parent="9PvemCOWOFsMxjhAVt44-1" vertex="1">
                    <mxGeometry x="380" y="190" width="65" height="40" as="geometry"/>
                </mxCell>
                <mxCell id="9PvemCOWOFsMxjhAVt44-25" value="" style="ellipse;whiteSpace=wrap;html=1;aspect=fixed;strokeWidth=2;fillColor=#E6E6E6;strokeColor=#000000;" parent="9PvemCOWOFsMxjhAVt44-1" vertex="1">
                    <mxGeometry x="480" y="195" width="30" height="30" as="geometry"/>
                </mxCell>
            </root>
        </mxGraphModel>
    </diagram>
    <diagram name="algorithm3" id="Kg1pYOG8kr4OmHVGjO_o">
        <mxGraphModel dx="2056" dy="1074" grid="1" gridSize="10" guides="1" tooltips="1" connect="1" arrows="1" fold="1" page="0" pageScale="1" pageWidth="1169" pageHeight="827" background="none" math="0" shadow="0">
            <root>
                <mxCell id="0AStWfe92blID58_a-F1-0"/>
                <mxCell id="0AStWfe92blID58_a-F1-1" parent="0AStWfe92blID58_a-F1-0"/>
                <mxCell id="0AStWfe92blID58_a-F1-26" style="rounded=0;orthogonalLoop=1;jettySize=auto;html=1;exitX=1;exitY=0.5;exitDx=0;exitDy=0;strokeWidth=2;endArrow=block;endFill=1;strokeColor=#FF0000;entryX=0.5;entryY=0;entryDx=0;entryDy=0;edgeStyle=orthogonalEdgeStyle;" edge="1" parent="0AStWfe92blID58_a-F1-1" source="0AStWfe92blID58_a-F1-27" target="0AStWfe92blID58_a-F1-35">
                    <mxGeometry relative="1" as="geometry">
                        <mxPoint x="210" y="330" as="targetPoint"/>
                    </mxGeometry>
                </mxCell>
                <mxCell id="0AStWfe92blID58_a-F1-27" value="&lt;font style=&quot;font-size: 24px;&quot;&gt;1&lt;/font&gt;" style="rounded=0;whiteSpace=wrap;html=1;fillColor=#FFCCCC;strokeColor=#FF0000;fontColor=#FF0000;strokeWidth=2;" vertex="1" parent="0AStWfe92blID58_a-F1-1">
                    <mxGeometry x="280" y="310" width="65" height="40" as="geometry"/>
                </mxCell>
                <mxCell id="0AStWfe92blID58_a-F1-28" value="" style="endArrow=none;html=1;rounded=0;strokeWidth=2;exitX=0.25;exitY=0;exitDx=0;exitDy=0;strokeColor=#FF0000;edgeStyle=orthogonalEdgeStyle;" edge="1" parent="0AStWfe92blID58_a-F1-1" source="0AStWfe92blID58_a-F1-27">
                    <mxGeometry width="50" height="50" relative="1" as="geometry">
                        <mxPoint x="370" y="330" as="sourcePoint"/>
                        <mxPoint x="290" y="300" as="targetPoint"/>
                        <Array as="points">
                            <mxPoint x="296" y="300"/>
                        </Array>
                    </mxGeometry>
                </mxCell>
                <mxCell id="0AStWfe92blID58_a-F1-29" value="" style="endArrow=block;html=1;rounded=0;strokeWidth=2;entryX=0;entryY=0.5;entryDx=0;entryDy=0;endFill=1;strokeColor=#FF0000;edgeStyle=orthogonalEdgeStyle;exitX=0.719;exitY=0.585;exitDx=0;exitDy=0;exitPerimeter=0;" edge="1" parent="0AStWfe92blID58_a-F1-1" target="0AStWfe92blID58_a-F1-27">
                    <mxGeometry width="50" height="50" relative="1" as="geometry">
                        <mxPoint x="290" y="300" as="sourcePoint"/>
                        <mxPoint x="420" y="280" as="targetPoint"/>
                        <Array as="points">
                            <mxPoint x="262.5" y="300"/>
                            <mxPoint x="262.5" y="330"/>
                        </Array>
                    </mxGeometry>
                </mxCell>
                <mxCell id="0AStWfe92blID58_a-F1-30" style="rounded=0;orthogonalLoop=1;jettySize=auto;html=1;exitX=1;exitY=0.5;exitDx=0;exitDy=0;entryX=0;entryY=0.5;entryDx=0;entryDy=0;strokeColor=#FF8000;endArrow=block;endFill=1;strokeWidth=2;" edge="1" parent="0AStWfe92blID58_a-F1-1" source="0AStWfe92blID58_a-F1-31" target="0AStWfe92blID58_a-F1-33">
                    <mxGeometry relative="1" as="geometry"/>
                </mxCell>
                <mxCell id="0AStWfe92blID58_a-F1-31" value="&lt;font style=&quot;font-size: 24px;&quot;&gt;2&lt;/font&gt;" style="rounded=0;whiteSpace=wrap;html=1;fillColor=#FFE6CC;strokeColor=#FF8000;fontColor=#FF8000;strokeWidth=2;" vertex="1" parent="0AStWfe92blID58_a-F1-1">
                    <mxGeometry x="180" y="390" width="65" height="40" as="geometry"/>
                </mxCell>
                <mxCell id="0AStWfe92blID58_a-F1-32" style="edgeStyle=orthogonalEdgeStyle;rounded=0;orthogonalLoop=1;jettySize=auto;html=1;exitX=1;exitY=0.5;exitDx=0;exitDy=0;entryX=0.5;entryY=1;entryDx=0;entryDy=0;strokeWidth=2;strokeColor=#FFFF00;endArrow=block;endFill=1;" edge="1" parent="0AStWfe92blID58_a-F1-1" source="0AStWfe92blID58_a-F1-33" target="0AStWfe92blID58_a-F1-35">
                    <mxGeometry relative="1" as="geometry"/>
                </mxCell>
                <mxCell id="0AStWfe92blID58_a-F1-33" value="&lt;span style=&quot;font-size: 24px;&quot;&gt;3&lt;/span&gt;" style="rounded=0;whiteSpace=wrap;html=1;fillColor=#FFFFCC;strokeColor=#FFFF00;fontColor=#FFFF00;strokeWidth=2;" vertex="1" parent="0AStWfe92blID58_a-F1-1">
                    <mxGeometry x="280" y="390" width="65" height="40" as="geometry"/>
                </mxCell>
                <mxCell id="0AStWfe92blID58_a-F1-34" style="edgeStyle=orthogonalEdgeStyle;rounded=0;orthogonalLoop=1;jettySize=auto;html=1;exitX=1;exitY=0.5;exitDx=0;exitDy=0;strokeWidth=2;endArrow=block;endFill=1;strokeColor=#80FF00;entryX=0;entryY=0.5;entryDx=0;entryDy=0;" edge="1" parent="0AStWfe92blID58_a-F1-1" source="0AStWfe92blID58_a-F1-35" target="0AStWfe92blID58_a-F1-36">
                    <mxGeometry relative="1" as="geometry">
                        <mxPoint x="470" y="400" as="targetPoint"/>
                    </mxGeometry>
                </mxCell>
                <mxCell id="0AStWfe92blID58_a-F1-35" value="&lt;span style=&quot;font-size: 24px;&quot;&gt;4&lt;/span&gt;" style="rounded=0;whiteSpace=wrap;html=1;fillColor=#E6FFCC;strokeColor=#80FF00;fontColor=#80FF00;strokeWidth=2;" vertex="1" parent="0AStWfe92blID58_a-F1-1">
                    <mxGeometry x="380" y="350" width="65" height="40" as="geometry"/>
                </mxCell>
                <mxCell id="0AStWfe92blID58_a-F1-36" value="" style="ellipse;whiteSpace=wrap;html=1;aspect=fixed;strokeWidth=2;fillColor=#E6E6E6;strokeColor=#000000;" vertex="1" parent="0AStWfe92blID58_a-F1-1">
                    <mxGeometry x="480" y="355" width="30" height="30" as="geometry"/>
                </mxCell>
            </root>
        </mxGraphModel>
    </diagram>
    <diagram name="algorithm4" id="57tNfDFtm6dN4dLBtZNQ">
        <mxGraphModel dx="2056" dy="674" grid="1" gridSize="10" guides="1" tooltips="1" connect="1" arrows="1" fold="1" page="0" pageScale="1" pageWidth="1169" pageHeight="827" background="none" math="0" shadow="0">
            <root>
                <mxCell id="ePxJQFmbxEqUq-UGrsog-0"/>
                <mxCell id="ePxJQFmbxEqUq-UGrsog-1" parent="ePxJQFmbxEqUq-UGrsog-0"/>
                <mxCell id="ePxJQFmbxEqUq-UGrsog-37" style="rounded=0;orthogonalLoop=1;jettySize=auto;html=1;exitX=1;exitY=0.5;exitDx=0;exitDy=0;strokeWidth=2;endArrow=block;endFill=1;strokeColor=#FF0000;entryX=0;entryY=0.5;entryDx=0;entryDy=0;" edge="1" parent="ePxJQFmbxEqUq-UGrsog-1" source="ePxJQFmbxEqUq-UGrsog-38" target="ePxJQFmbxEqUq-UGrsog-44">
                    <mxGeometry relative="1" as="geometry">
                        <mxPoint x="210" y="520" as="targetPoint"/>
                    </mxGeometry>
                </mxCell>
                <mxCell id="ePxJQFmbxEqUq-UGrsog-38" value="&lt;font style=&quot;font-size: 24px;&quot;&gt;1&lt;/font&gt;" style="rounded=0;whiteSpace=wrap;html=1;fillColor=#FFCCCC;strokeColor=#FF0000;fontColor=#FF0000;strokeWidth=2;" vertex="1" parent="ePxJQFmbxEqUq-UGrsog-1">
                    <mxGeometry x="180" y="500" width="65" height="40" as="geometry"/>
                </mxCell>
                <mxCell id="ePxJQFmbxEqUq-UGrsog-39" value="" style="endArrow=none;html=1;rounded=0;strokeWidth=2;exitX=0.25;exitY=0;exitDx=0;exitDy=0;strokeColor=#FF0000;edgeStyle=orthogonalEdgeStyle;" edge="1" parent="ePxJQFmbxEqUq-UGrsog-1" source="ePxJQFmbxEqUq-UGrsog-38">
                    <mxGeometry width="50" height="50" relative="1" as="geometry">
                        <mxPoint x="270" y="520" as="sourcePoint"/>
                        <mxPoint x="190" y="490" as="targetPoint"/>
                        <Array as="points">
                            <mxPoint x="196" y="490"/>
                        </Array>
                    </mxGeometry>
                </mxCell>
                <mxCell id="ePxJQFmbxEqUq-UGrsog-40" value="" style="endArrow=block;html=1;rounded=0;strokeWidth=2;entryX=0;entryY=0.5;entryDx=0;entryDy=0;endFill=1;strokeColor=#FF0000;edgeStyle=orthogonalEdgeStyle;exitX=0.719;exitY=0.585;exitDx=0;exitDy=0;exitPerimeter=0;" edge="1" parent="ePxJQFmbxEqUq-UGrsog-1" target="ePxJQFmbxEqUq-UGrsog-38">
                    <mxGeometry width="50" height="50" relative="1" as="geometry">
                        <mxPoint x="190" y="490" as="sourcePoint"/>
                        <mxPoint x="320" y="470" as="targetPoint"/>
                        <Array as="points">
                            <mxPoint x="162.5" y="490"/>
                            <mxPoint x="162.5" y="520"/>
                        </Array>
                    </mxGeometry>
                </mxCell>
                <mxCell id="ePxJQFmbxEqUq-UGrsog-41" style="edgeStyle=orthogonalEdgeStyle;rounded=0;orthogonalLoop=1;jettySize=auto;html=1;exitX=1;exitY=0.5;exitDx=0;exitDy=0;entryX=0.5;entryY=1;entryDx=0;entryDy=0;strokeColor=#FFFF00;endArrow=block;endFill=1;strokeWidth=2;" edge="1" parent="ePxJQFmbxEqUq-UGrsog-1" source="ePxJQFmbxEqUq-UGrsog-42" target="ePxJQFmbxEqUq-UGrsog-46">
                    <mxGeometry relative="1" as="geometry"/>
                </mxCell>
                <mxCell id="ePxJQFmbxEqUq-UGrsog-42" value="&lt;font style=&quot;font-size: 24px;&quot;&gt;3&lt;/font&gt;" style="rounded=0;whiteSpace=wrap;html=1;fillColor=#FFFFCC;strokeColor=#FFFF00;fontColor=#FFFF00;strokeWidth=2;" vertex="1" parent="ePxJQFmbxEqUq-UGrsog-1">
                    <mxGeometry x="280" y="580" width="65" height="40" as="geometry"/>
                </mxCell>
                <mxCell id="ePxJQFmbxEqUq-UGrsog-43" style="edgeStyle=orthogonalEdgeStyle;rounded=0;orthogonalLoop=1;jettySize=auto;html=1;exitX=1;exitY=0.5;exitDx=0;exitDy=0;entryX=0.5;entryY=0;entryDx=0;entryDy=0;strokeWidth=2;strokeColor=#FF8000;endArrow=block;endFill=1;" edge="1" parent="ePxJQFmbxEqUq-UGrsog-1" source="ePxJQFmbxEqUq-UGrsog-44" target="ePxJQFmbxEqUq-UGrsog-46">
                    <mxGeometry relative="1" as="geometry"/>
                </mxCell>
                <mxCell id="ePxJQFmbxEqUq-UGrsog-44" value="&lt;span style=&quot;font-size: 24px;&quot;&gt;2&lt;/span&gt;" style="rounded=0;whiteSpace=wrap;html=1;fillColor=#FFE6CC;strokeColor=#FF8000;fontColor=#FF8000;strokeWidth=2;" vertex="1" parent="ePxJQFmbxEqUq-UGrsog-1">
                    <mxGeometry x="280" y="500" width="65" height="40" as="geometry"/>
                </mxCell>
                <mxCell id="ePxJQFmbxEqUq-UGrsog-45" style="edgeStyle=orthogonalEdgeStyle;rounded=0;orthogonalLoop=1;jettySize=auto;html=1;exitX=1;exitY=0.5;exitDx=0;exitDy=0;strokeWidth=2;endArrow=block;endFill=1;strokeColor=#80FF00;entryX=0;entryY=0.5;entryDx=0;entryDy=0;" edge="1" parent="ePxJQFmbxEqUq-UGrsog-1" source="ePxJQFmbxEqUq-UGrsog-46" target="ePxJQFmbxEqUq-UGrsog-47">
                    <mxGeometry relative="1" as="geometry">
                        <mxPoint x="470" y="590" as="targetPoint"/>
                    </mxGeometry>
                </mxCell>
                <mxCell id="ePxJQFmbxEqUq-UGrsog-46" value="&lt;span style=&quot;font-size: 24px;&quot;&gt;4&lt;/span&gt;" style="rounded=0;whiteSpace=wrap;html=1;fillColor=#E6FFCC;strokeColor=#80FF00;fontColor=#80FF00;strokeWidth=2;" vertex="1" parent="ePxJQFmbxEqUq-UGrsog-1">
                    <mxGeometry x="380" y="540" width="65" height="40" as="geometry"/>
                </mxCell>
                <mxCell id="ePxJQFmbxEqUq-UGrsog-47" value="" style="ellipse;whiteSpace=wrap;html=1;aspect=fixed;strokeWidth=2;fillColor=#E6E6E6;strokeColor=#000000;" vertex="1" parent="ePxJQFmbxEqUq-UGrsog-1">
                    <mxGeometry x="480" y="545" width="30" height="30" as="geometry"/>
                </mxCell>
            </root>
        </mxGraphModel>
    </diagram>
    <diagram name="algorithm5" id="HBMsAirWzUkrXXM0XfLG">
        <mxGraphModel dx="2056" dy="674" grid="1" gridSize="10" guides="1" tooltips="1" connect="1" arrows="1" fold="1" page="0" pageScale="1" pageWidth="1169" pageHeight="827" background="none" math="0" shadow="0">
            <root>
                <mxCell id="XeRmafAqH8BJjt1nKbse-0"/>
                <mxCell id="XeRmafAqH8BJjt1nKbse-1" parent="XeRmafAqH8BJjt1nKbse-0"/>
                <mxCell id="XeRmafAqH8BJjt1nKbse-48" style="rounded=0;orthogonalLoop=1;jettySize=auto;html=1;exitX=1;exitY=0.5;exitDx=0;exitDy=0;strokeWidth=2;endArrow=block;endFill=1;strokeColor=#FF0000;entryX=0;entryY=0.5;entryDx=0;entryDy=0;" edge="1" parent="XeRmafAqH8BJjt1nKbse-1" source="XeRmafAqH8BJjt1nKbse-49" target="XeRmafAqH8BJjt1nKbse-55">
                    <mxGeometry relative="1" as="geometry">
                        <mxPoint x="247.57" y="700" as="targetPoint"/>
                    </mxGeometry>
                </mxCell>
                <mxCell id="XeRmafAqH8BJjt1nKbse-49" value="&lt;font style=&quot;font-size: 24px;&quot;&gt;1&lt;/font&gt;" style="rounded=0;whiteSpace=wrap;html=1;fillColor=#FFCCCC;strokeColor=#FF0000;fontColor=#FF0000;strokeWidth=2;" vertex="1" parent="XeRmafAqH8BJjt1nKbse-1">
                    <mxGeometry x="217.57" y="680" width="65" height="40" as="geometry"/>
                </mxCell>
                <mxCell id="XeRmafAqH8BJjt1nKbse-50" value="" style="endArrow=none;html=1;rounded=0;strokeWidth=2;exitX=0.25;exitY=0;exitDx=0;exitDy=0;strokeColor=#FF0000;edgeStyle=orthogonalEdgeStyle;" edge="1" parent="XeRmafAqH8BJjt1nKbse-1" source="XeRmafAqH8BJjt1nKbse-49">
                    <mxGeometry width="50" height="50" relative="1" as="geometry">
                        <mxPoint x="307.57" y="700" as="sourcePoint"/>
                        <mxPoint x="227.57" y="670" as="targetPoint"/>
                        <Array as="points">
                            <mxPoint x="234.07" y="670"/>
                        </Array>
                    </mxGeometry>
                </mxCell>
                <mxCell id="XeRmafAqH8BJjt1nKbse-51" value="" style="endArrow=block;html=1;rounded=0;strokeWidth=2;entryX=0;entryY=0.5;entryDx=0;entryDy=0;endFill=1;strokeColor=#FF0000;edgeStyle=orthogonalEdgeStyle;exitX=0.719;exitY=0.585;exitDx=0;exitDy=0;exitPerimeter=0;" edge="1" parent="XeRmafAqH8BJjt1nKbse-1" target="XeRmafAqH8BJjt1nKbse-49">
                    <mxGeometry width="50" height="50" relative="1" as="geometry">
                        <mxPoint x="227.57" y="670" as="sourcePoint"/>
                        <mxPoint x="357.57" y="650" as="targetPoint"/>
                        <Array as="points">
                            <mxPoint x="200.07" y="670"/>
                            <mxPoint x="200.07" y="700"/>
                        </Array>
                    </mxGeometry>
                </mxCell>
                <mxCell id="XeRmafAqH8BJjt1nKbse-52" style="rounded=0;orthogonalLoop=1;jettySize=auto;html=1;exitX=1;exitY=0.5;exitDx=0;exitDy=0;entryX=0;entryY=0.5;entryDx=0;entryDy=0;strokeColor=#FFFF00;endArrow=block;endFill=1;strokeWidth=2;" edge="1" parent="XeRmafAqH8BJjt1nKbse-1" source="XeRmafAqH8BJjt1nKbse-53" target="XeRmafAqH8BJjt1nKbse-57">
                    <mxGeometry relative="1" as="geometry"/>
                </mxCell>
                <mxCell id="XeRmafAqH8BJjt1nKbse-53" value="&lt;font style=&quot;font-size: 24px;&quot;&gt;3&lt;/font&gt;" style="rounded=0;whiteSpace=wrap;html=1;fillColor=#FFFFCC;strokeColor=#FFFF00;fontColor=#FFFF00;strokeWidth=2;" vertex="1" parent="XeRmafAqH8BJjt1nKbse-1">
                    <mxGeometry x="217.57" y="760" width="65" height="40" as="geometry"/>
                </mxCell>
                <mxCell id="XeRmafAqH8BJjt1nKbse-54" style="edgeStyle=orthogonalEdgeStyle;rounded=0;orthogonalLoop=1;jettySize=auto;html=1;exitX=1;exitY=0.5;exitDx=0;exitDy=0;entryX=0.5;entryY=0;entryDx=0;entryDy=0;strokeWidth=2;strokeColor=#FF8000;endArrow=block;endFill=1;" edge="1" parent="XeRmafAqH8BJjt1nKbse-1" source="XeRmafAqH8BJjt1nKbse-55" target="XeRmafAqH8BJjt1nKbse-58">
                    <mxGeometry relative="1" as="geometry"/>
                </mxCell>
                <mxCell id="XeRmafAqH8BJjt1nKbse-55" value="&lt;span style=&quot;font-size: 24px;&quot;&gt;2&lt;/span&gt;" style="rounded=0;whiteSpace=wrap;html=1;fillColor=#FFE6CC;strokeColor=#FF8000;fontColor=#FF8000;strokeWidth=2;" vertex="1" parent="XeRmafAqH8BJjt1nKbse-1">
                    <mxGeometry x="317.57" y="680" width="65" height="40" as="geometry"/>
                </mxCell>
                <mxCell id="XeRmafAqH8BJjt1nKbse-56" style="edgeStyle=orthogonalEdgeStyle;rounded=0;orthogonalLoop=1;jettySize=auto;html=1;exitX=1;exitY=0.5;exitDx=0;exitDy=0;strokeWidth=2;endArrow=block;endFill=1;strokeColor=#80FF00;entryX=0.5;entryY=1;entryDx=0;entryDy=0;" edge="1" parent="XeRmafAqH8BJjt1nKbse-1" source="XeRmafAqH8BJjt1nKbse-57" target="XeRmafAqH8BJjt1nKbse-58">
                    <mxGeometry relative="1" as="geometry">
                        <mxPoint x="407.57" y="770" as="targetPoint"/>
                    </mxGeometry>
                </mxCell>
                <mxCell id="XeRmafAqH8BJjt1nKbse-57" value="&lt;span style=&quot;font-size: 24px;&quot;&gt;4&lt;/span&gt;" style="rounded=0;whiteSpace=wrap;html=1;fillColor=#E6FFCC;strokeColor=#80FF00;fontColor=#80FF00;strokeWidth=2;" vertex="1" parent="XeRmafAqH8BJjt1nKbse-1">
                    <mxGeometry x="317.57" y="760" width="65" height="40" as="geometry"/>
                </mxCell>
                <mxCell id="XeRmafAqH8BJjt1nKbse-58" value="" style="ellipse;whiteSpace=wrap;html=1;aspect=fixed;strokeWidth=2;fillColor=#E6E6E6;strokeColor=#000000;" vertex="1" parent="XeRmafAqH8BJjt1nKbse-1">
                    <mxGeometry x="417.57" y="725" width="30" height="30" as="geometry"/>
                </mxCell>
            </root>
        </mxGraphModel>
    </diagram>
    <diagram name="algorithm6" id="wH4XQKmdZ1IwFpIfXo7R">
        <mxGraphModel dx="1656" dy="1074" grid="1" gridSize="10" guides="1" tooltips="1" connect="1" arrows="1" fold="1" page="0" pageScale="1" pageWidth="1169" pageHeight="827" background="none" math="0" shadow="0">
            <root>
                <mxCell id="g-hvb0zhiF_Mig77Bs2B-0"/>
                <mxCell id="g-hvb0zhiF_Mig77Bs2B-1" parent="g-hvb0zhiF_Mig77Bs2B-0"/>
                <mxCell id="g-hvb0zhiF_Mig77Bs2B-59" style="rounded=0;orthogonalLoop=1;jettySize=auto;html=1;exitX=1;exitY=0.5;exitDx=0;exitDy=0;strokeWidth=2;endArrow=block;endFill=1;strokeColor=#FF0000;entryX=0;entryY=0.5;entryDx=0;entryDy=0;" edge="1" parent="g-hvb0zhiF_Mig77Bs2B-1" source="g-hvb0zhiF_Mig77Bs2B-62" target="g-hvb0zhiF_Mig77Bs2B-68">
                    <mxGeometry relative="1" as="geometry">
                        <mxPoint x="677.5" y="210" as="targetPoint"/>
                    </mxGeometry>
                </mxCell>
                <mxCell id="g-hvb0zhiF_Mig77Bs2B-60" style="edgeStyle=orthogonalEdgeStyle;rounded=0;orthogonalLoop=1;jettySize=auto;html=1;exitX=0.5;exitY=0;exitDx=0;exitDy=0;entryX=0;entryY=0.5;entryDx=0;entryDy=0;strokeColor=#FF0000;strokeWidth=2;" edge="1" parent="g-hvb0zhiF_Mig77Bs2B-1" source="g-hvb0zhiF_Mig77Bs2B-62" target="g-hvb0zhiF_Mig77Bs2B-66">
                    <mxGeometry relative="1" as="geometry"/>
                </mxCell>
                <mxCell id="g-hvb0zhiF_Mig77Bs2B-61" style="edgeStyle=orthogonalEdgeStyle;rounded=0;orthogonalLoop=1;jettySize=auto;html=1;exitX=0.5;exitY=1;exitDx=0;exitDy=0;entryX=0;entryY=0.5;entryDx=0;entryDy=0;strokeWidth=2;strokeColor=#FF0000;" edge="1" parent="g-hvb0zhiF_Mig77Bs2B-1" source="g-hvb0zhiF_Mig77Bs2B-62" target="g-hvb0zhiF_Mig77Bs2B-70">
                    <mxGeometry relative="1" as="geometry"/>
                </mxCell>
                <mxCell id="g-hvb0zhiF_Mig77Bs2B-62" value="&lt;font style=&quot;font-size: 24px;&quot;&gt;1&lt;/font&gt;" style="rounded=0;whiteSpace=wrap;html=1;fillColor=#FFCCCC;strokeColor=#FF0000;fontColor=#FF0000;strokeWidth=2;" vertex="1" parent="g-hvb0zhiF_Mig77Bs2B-1">
                    <mxGeometry x="727.5" y="139" width="65" height="40" as="geometry"/>
                </mxCell>
                <mxCell id="g-hvb0zhiF_Mig77Bs2B-63" value="" style="endArrow=none;html=1;rounded=0;strokeWidth=2;exitX=0.25;exitY=0;exitDx=0;exitDy=0;strokeColor=#FF0000;edgeStyle=orthogonalEdgeStyle;" edge="1" parent="g-hvb0zhiF_Mig77Bs2B-1" source="g-hvb0zhiF_Mig77Bs2B-62">
                    <mxGeometry width="50" height="50" relative="1" as="geometry">
                        <mxPoint x="817.5" y="159" as="sourcePoint"/>
                        <mxPoint x="737.5" y="129" as="targetPoint"/>
                        <Array as="points">
                            <mxPoint x="743.5" y="129"/>
                        </Array>
                    </mxGeometry>
                </mxCell>
                <mxCell id="g-hvb0zhiF_Mig77Bs2B-64" value="" style="endArrow=block;html=1;rounded=0;strokeWidth=2;entryX=0;entryY=0.5;entryDx=0;entryDy=0;endFill=1;strokeColor=#FF0000;edgeStyle=orthogonalEdgeStyle;exitX=0.719;exitY=0.585;exitDx=0;exitDy=0;exitPerimeter=0;" edge="1" parent="g-hvb0zhiF_Mig77Bs2B-1" target="g-hvb0zhiF_Mig77Bs2B-62">
                    <mxGeometry width="50" height="50" relative="1" as="geometry">
                        <mxPoint x="737.5" y="129" as="sourcePoint"/>
                        <mxPoint x="867.5" y="109" as="targetPoint"/>
                        <Array as="points">
                            <mxPoint x="710" y="129"/>
                            <mxPoint x="710" y="159"/>
                        </Array>
                    </mxGeometry>
                </mxCell>
                <mxCell id="g-hvb0zhiF_Mig77Bs2B-65" style="rounded=0;orthogonalLoop=1;jettySize=auto;html=1;exitX=1;exitY=0.5;exitDx=0;exitDy=0;entryX=0.5;entryY=0;entryDx=0;entryDy=0;strokeColor=#FF8000;endArrow=block;endFill=1;strokeWidth=2;edgeStyle=orthogonalEdgeStyle;" edge="1" parent="g-hvb0zhiF_Mig77Bs2B-1" source="g-hvb0zhiF_Mig77Bs2B-66" target="g-hvb0zhiF_Mig77Bs2B-71">
                    <mxGeometry relative="1" as="geometry"/>
                </mxCell>
                <mxCell id="g-hvb0zhiF_Mig77Bs2B-66" value="&lt;font style=&quot;font-size: 24px;&quot;&gt;2&lt;/font&gt;" style="rounded=0;whiteSpace=wrap;html=1;fillColor=#FFE6CC;strokeColor=#FF8000;fontColor=#FF8000;strokeWidth=2;" vertex="1" parent="g-hvb0zhiF_Mig77Bs2B-1">
                    <mxGeometry x="827.5" y="80" width="65" height="40" as="geometry"/>
                </mxCell>
                <mxCell id="g-hvb0zhiF_Mig77Bs2B-67" style="edgeStyle=orthogonalEdgeStyle;rounded=0;orthogonalLoop=1;jettySize=auto;html=1;exitX=1;exitY=0.5;exitDx=0;exitDy=0;entryX=0;entryY=0.5;entryDx=0;entryDy=0;strokeWidth=2;strokeColor=#FFFF00;endArrow=block;endFill=1;" edge="1" parent="g-hvb0zhiF_Mig77Bs2B-1" source="g-hvb0zhiF_Mig77Bs2B-68" target="g-hvb0zhiF_Mig77Bs2B-71">
                    <mxGeometry relative="1" as="geometry"/>
                </mxCell>
                <mxCell id="g-hvb0zhiF_Mig77Bs2B-68" value="&lt;span style=&quot;font-size: 24px;&quot;&gt;3&lt;/span&gt;" style="rounded=0;whiteSpace=wrap;html=1;fillColor=#FFFFCC;strokeColor=#FFFF00;fontColor=#FFFF00;strokeWidth=2;" vertex="1" parent="g-hvb0zhiF_Mig77Bs2B-1">
                    <mxGeometry x="827.5" y="139" width="65" height="40" as="geometry"/>
                </mxCell>
                <mxCell id="g-hvb0zhiF_Mig77Bs2B-69" style="edgeStyle=orthogonalEdgeStyle;rounded=0;orthogonalLoop=1;jettySize=auto;html=1;exitX=1;exitY=0.5;exitDx=0;exitDy=0;strokeWidth=2;endArrow=block;endFill=1;strokeColor=#80FF00;entryX=0.5;entryY=1;entryDx=0;entryDy=0;" edge="1" parent="g-hvb0zhiF_Mig77Bs2B-1" source="g-hvb0zhiF_Mig77Bs2B-70" target="g-hvb0zhiF_Mig77Bs2B-71">
                    <mxGeometry relative="1" as="geometry">
                        <mxPoint x="917.5" y="189" as="targetPoint"/>
                    </mxGeometry>
                </mxCell>
                <mxCell id="g-hvb0zhiF_Mig77Bs2B-70" value="&lt;span style=&quot;font-size: 24px;&quot;&gt;4&lt;/span&gt;" style="rounded=0;whiteSpace=wrap;html=1;fillColor=#E6FFCC;strokeColor=#80FF00;fontColor=#80FF00;strokeWidth=2;" vertex="1" parent="g-hvb0zhiF_Mig77Bs2B-1">
                    <mxGeometry x="827.5" y="200" width="65" height="40" as="geometry"/>
                </mxCell>
                <mxCell id="g-hvb0zhiF_Mig77Bs2B-71" value="" style="ellipse;whiteSpace=wrap;html=1;aspect=fixed;strokeWidth=2;fillColor=#E6E6E6;strokeColor=#000000;" vertex="1" parent="g-hvb0zhiF_Mig77Bs2B-1">
                    <mxGeometry x="927.5" y="144" width="30" height="30" as="geometry"/>
                </mxCell>
            </root>
        </mxGraphModel>
    </diagram>
    <diagram name="algorithm7" id="SZJvM9gjP162nAEeeemW">
        <mxGraphModel dx="1656" dy="1074" grid="1" gridSize="10" guides="1" tooltips="1" connect="1" arrows="1" fold="1" page="0" pageScale="1" pageWidth="1169" pageHeight="827" background="none" math="0" shadow="0">
            <root>
                <mxCell id="80zklUuUzeA10nEkxhlE-0"/>
                <mxCell id="80zklUuUzeA10nEkxhlE-1" parent="80zklUuUzeA10nEkxhlE-0"/>
                <mxCell id="80zklUuUzeA10nEkxhlE-72" style="rounded=0;orthogonalLoop=1;jettySize=auto;html=1;exitX=1;exitY=0.5;exitDx=0;exitDy=0;strokeWidth=2;endArrow=block;endFill=1;strokeColor=#FF0000;entryX=0;entryY=0.5;entryDx=0;entryDy=0;" edge="1" parent="80zklUuUzeA10nEkxhlE-1" source="80zklUuUzeA10nEkxhlE-73" target="80zklUuUzeA10nEkxhlE-77">
                    <mxGeometry relative="1" as="geometry">
                        <mxPoint x="677.5" y="455" as="targetPoint"/>
                    </mxGeometry>
                </mxCell>
                <mxCell id="80zklUuUzeA10nEkxhlE-73" value="&lt;font style=&quot;font-size: 24px;&quot;&gt;1&lt;/font&gt;" style="rounded=0;whiteSpace=wrap;html=1;fillColor=#FFCCCC;strokeColor=#FF0000;fontColor=#FF0000;strokeWidth=2;" vertex="1" parent="80zklUuUzeA10nEkxhlE-1">
                    <mxGeometry x="727.5" y="325" width="65" height="40" as="geometry"/>
                </mxCell>
                <mxCell id="80zklUuUzeA10nEkxhlE-74" value="" style="endArrow=none;html=1;rounded=0;strokeWidth=2;exitX=0.25;exitY=0;exitDx=0;exitDy=0;strokeColor=#FF0000;edgeStyle=orthogonalEdgeStyle;" edge="1" parent="80zklUuUzeA10nEkxhlE-1" source="80zklUuUzeA10nEkxhlE-73">
                    <mxGeometry width="50" height="50" relative="1" as="geometry">
                        <mxPoint x="817.5" y="345" as="sourcePoint"/>
                        <mxPoint x="737.5" y="315" as="targetPoint"/>
                        <Array as="points">
                            <mxPoint x="743.5" y="315"/>
                        </Array>
                    </mxGeometry>
                </mxCell>
                <mxCell id="80zklUuUzeA10nEkxhlE-75" value="" style="endArrow=block;html=1;rounded=0;strokeWidth=2;entryX=0;entryY=0.5;entryDx=0;entryDy=0;endFill=1;strokeColor=#FF0000;edgeStyle=orthogonalEdgeStyle;exitX=0.719;exitY=0.585;exitDx=0;exitDy=0;exitPerimeter=0;" edge="1" parent="80zklUuUzeA10nEkxhlE-1" target="80zklUuUzeA10nEkxhlE-73">
                    <mxGeometry width="50" height="50" relative="1" as="geometry">
                        <mxPoint x="737.5" y="315" as="sourcePoint"/>
                        <mxPoint x="867.5" y="295" as="targetPoint"/>
                        <Array as="points">
                            <mxPoint x="710" y="315"/>
                            <mxPoint x="710" y="345"/>
                        </Array>
                    </mxGeometry>
                </mxCell>
                <mxCell id="80zklUuUzeA10nEkxhlE-76" style="rounded=0;orthogonalLoop=1;jettySize=auto;html=1;exitX=1;exitY=0.5;exitDx=0;exitDy=0;entryX=0.5;entryY=0;entryDx=0;entryDy=0;strokeColor=#FF8000;endArrow=block;endFill=1;strokeWidth=2;edgeStyle=orthogonalEdgeStyle;" edge="1" parent="80zklUuUzeA10nEkxhlE-1" source="80zklUuUzeA10nEkxhlE-77" target="80zklUuUzeA10nEkxhlE-82">
                    <mxGeometry relative="1" as="geometry"/>
                </mxCell>
                <mxCell id="80zklUuUzeA10nEkxhlE-77" value="&lt;font style=&quot;font-size: 24px;&quot;&gt;2&lt;/font&gt;" style="rounded=0;whiteSpace=wrap;html=1;fillColor=#FFE6CC;strokeColor=#FF8000;fontColor=#FF8000;strokeWidth=2;" vertex="1" parent="80zklUuUzeA10nEkxhlE-1">
                    <mxGeometry x="827.5" y="325" width="65" height="40" as="geometry"/>
                </mxCell>
                <mxCell id="80zklUuUzeA10nEkxhlE-78" style="edgeStyle=orthogonalEdgeStyle;rounded=0;orthogonalLoop=1;jettySize=auto;html=1;exitX=1;exitY=0.5;exitDx=0;exitDy=0;entryX=0;entryY=0.5;entryDx=0;entryDy=0;strokeWidth=2;strokeColor=#FFFF00;endArrow=block;endFill=1;" edge="1" parent="80zklUuUzeA10nEkxhlE-1" source="80zklUuUzeA10nEkxhlE-79" target="80zklUuUzeA10nEkxhlE-82">
                    <mxGeometry relative="1" as="geometry"/>
                </mxCell>
                <mxCell id="80zklUuUzeA10nEkxhlE-79" value="&lt;span style=&quot;font-size: 24px;&quot;&gt;3&lt;/span&gt;" style="rounded=0;whiteSpace=wrap;html=1;fillColor=#FFFFCC;strokeColor=#FFFF00;fontColor=#FFFF00;strokeWidth=2;" vertex="1" parent="80zklUuUzeA10nEkxhlE-1">
                    <mxGeometry x="827.5" y="384" width="65" height="40" as="geometry"/>
                </mxCell>
                <mxCell id="80zklUuUzeA10nEkxhlE-80" style="edgeStyle=orthogonalEdgeStyle;rounded=0;orthogonalLoop=1;jettySize=auto;html=1;exitX=1;exitY=0.5;exitDx=0;exitDy=0;strokeWidth=2;endArrow=block;endFill=1;strokeColor=#80FF00;entryX=0.5;entryY=1;entryDx=0;entryDy=0;" edge="1" parent="80zklUuUzeA10nEkxhlE-1" source="80zklUuUzeA10nEkxhlE-81" target="80zklUuUzeA10nEkxhlE-82">
                    <mxGeometry relative="1" as="geometry">
                        <mxPoint x="917.5" y="434" as="targetPoint"/>
                    </mxGeometry>
                </mxCell>
                <mxCell id="80zklUuUzeA10nEkxhlE-81" value="&lt;span style=&quot;font-size: 24px;&quot;&gt;4&lt;/span&gt;" style="rounded=0;whiteSpace=wrap;html=1;fillColor=#E6FFCC;strokeColor=#80FF00;fontColor=#80FF00;strokeWidth=2;" vertex="1" parent="80zklUuUzeA10nEkxhlE-1">
                    <mxGeometry x="827.5" y="445" width="65" height="40" as="geometry"/>
                </mxCell>
                <mxCell id="80zklUuUzeA10nEkxhlE-82" value="" style="ellipse;whiteSpace=wrap;html=1;aspect=fixed;strokeWidth=2;fillColor=#E6E6E6;strokeColor=#000000;" vertex="1" parent="80zklUuUzeA10nEkxhlE-1">
                    <mxGeometry x="927.5" y="389" width="30" height="30" as="geometry"/>
                </mxCell>
            </root>
        </mxGraphModel>
    </diagram>
    <diagram name="algorithm8" id="f4Ds8Q96slvsjfMfbdz2">
        <mxGraphModel dx="1256" dy="674" grid="1" gridSize="10" guides="1" tooltips="1" connect="1" arrows="1" fold="1" page="0" pageScale="1" pageWidth="1169" pageHeight="827" background="none" math="0" shadow="0">
            <root>
                <mxCell id="JTK3appr4KqWw-ykg9_w-0"/>
                <mxCell id="JTK3appr4KqWw-ykg9_w-1" parent="JTK3appr4KqWw-ykg9_w-0"/>
                <mxCell id="JTK3appr4KqWw-ykg9_w-83" style="rounded=0;orthogonalLoop=1;jettySize=auto;html=1;exitX=1;exitY=0.5;exitDx=0;exitDy=0;strokeWidth=2;endArrow=block;endFill=1;strokeColor=#FF0000;entryX=0.5;entryY=0;entryDx=0;entryDy=0;edgeStyle=orthogonalEdgeStyle;" edge="1" parent="JTK3appr4KqWw-ykg9_w-1" source="JTK3appr4KqWw-ykg9_w-84" target="JTK3appr4KqWw-ykg9_w-93">
                    <mxGeometry relative="1" as="geometry">
                        <mxPoint x="990.07" y="610" as="targetPoint"/>
                    </mxGeometry>
                </mxCell>
                <mxCell id="JTK3appr4KqWw-ykg9_w-84" value="&lt;font style=&quot;font-size: 24px;&quot;&gt;1&lt;/font&gt;" style="rounded=0;whiteSpace=wrap;html=1;fillColor=#FFCCCC;strokeColor=#FF0000;fontColor=#FF0000;strokeWidth=2;" vertex="1" parent="JTK3appr4KqWw-ykg9_w-1">
                    <mxGeometry x="845.07" y="550" width="65" height="40" as="geometry"/>
                </mxCell>
                <mxCell id="JTK3appr4KqWw-ykg9_w-85" value="" style="endArrow=none;html=1;rounded=0;strokeWidth=2;exitX=0.25;exitY=0;exitDx=0;exitDy=0;strokeColor=#FF0000;edgeStyle=orthogonalEdgeStyle;" edge="1" parent="JTK3appr4KqWw-ykg9_w-1" source="JTK3appr4KqWw-ykg9_w-84">
                    <mxGeometry width="50" height="50" relative="1" as="geometry">
                        <mxPoint x="935.07" y="570" as="sourcePoint"/>
                        <mxPoint x="855.07" y="540" as="targetPoint"/>
                        <Array as="points">
                            <mxPoint x="861.07" y="540"/>
                        </Array>
                    </mxGeometry>
                </mxCell>
                <mxCell id="JTK3appr4KqWw-ykg9_w-86" value="" style="endArrow=block;html=1;rounded=0;strokeWidth=2;entryX=0;entryY=0.5;entryDx=0;entryDy=0;endFill=1;strokeColor=#FF0000;edgeStyle=orthogonalEdgeStyle;exitX=0.719;exitY=0.585;exitDx=0;exitDy=0;exitPerimeter=0;" edge="1" parent="JTK3appr4KqWw-ykg9_w-1" target="JTK3appr4KqWw-ykg9_w-84">
                    <mxGeometry width="50" height="50" relative="1" as="geometry">
                        <mxPoint x="855.07" y="540" as="sourcePoint"/>
                        <mxPoint x="985.07" y="520" as="targetPoint"/>
                        <Array as="points">
                            <mxPoint x="827.57" y="540"/>
                            <mxPoint x="827.57" y="570"/>
                        </Array>
                    </mxGeometry>
                </mxCell>
                <mxCell id="JTK3appr4KqWw-ykg9_w-87" style="rounded=0;orthogonalLoop=1;jettySize=auto;html=1;exitX=1;exitY=0.5;exitDx=0;exitDy=0;entryX=0;entryY=0;entryDx=0;entryDy=0;strokeColor=#FF8000;endArrow=block;endFill=1;strokeWidth=2;edgeStyle=orthogonalEdgeStyle;" edge="1" parent="JTK3appr4KqWw-ykg9_w-1" source="JTK3appr4KqWw-ykg9_w-88" target="JTK3appr4KqWw-ykg9_w-93">
                    <mxGeometry relative="1" as="geometry"/>
                </mxCell>
                <mxCell id="JTK3appr4KqWw-ykg9_w-88" value="&lt;font style=&quot;font-size: 24px;&quot;&gt;2&lt;/font&gt;" style="rounded=0;whiteSpace=wrap;html=1;fillColor=#FFE6CC;strokeColor=#FF8000;fontColor=#FF8000;strokeWidth=2;" vertex="1" parent="JTK3appr4KqWw-ykg9_w-1">
                    <mxGeometry x="845.08" y="610" width="65" height="40" as="geometry"/>
                </mxCell>
                <mxCell id="JTK3appr4KqWw-ykg9_w-89" style="edgeStyle=orthogonalEdgeStyle;rounded=0;orthogonalLoop=1;jettySize=auto;html=1;exitX=1;exitY=0.5;exitDx=0;exitDy=0;strokeWidth=2;strokeColor=#FFFF00;endArrow=block;endFill=1;entryX=0;entryY=1;entryDx=0;entryDy=0;" edge="1" parent="JTK3appr4KqWw-ykg9_w-1" source="JTK3appr4KqWw-ykg9_w-90" target="JTK3appr4KqWw-ykg9_w-93">
                    <mxGeometry relative="1" as="geometry">
                        <mxPoint x="940.07" y="710" as="targetPoint"/>
                    </mxGeometry>
                </mxCell>
                <mxCell id="JTK3appr4KqWw-ykg9_w-90" value="&lt;span style=&quot;font-size: 24px;&quot;&gt;3&lt;/span&gt;" style="rounded=0;whiteSpace=wrap;html=1;fillColor=#FFFFCC;strokeColor=#FFFF00;fontColor=#FFFF00;strokeWidth=2;" vertex="1" parent="JTK3appr4KqWw-ykg9_w-1">
                    <mxGeometry x="845.08" y="669" width="65" height="40" as="geometry"/>
                </mxCell>
                <mxCell id="JTK3appr4KqWw-ykg9_w-91" style="edgeStyle=orthogonalEdgeStyle;rounded=0;orthogonalLoop=1;jettySize=auto;html=1;exitX=1;exitY=0.5;exitDx=0;exitDy=0;strokeWidth=2;endArrow=block;endFill=1;strokeColor=#80FF00;entryX=0.5;entryY=1;entryDx=0;entryDy=0;" edge="1" parent="JTK3appr4KqWw-ykg9_w-1" source="JTK3appr4KqWw-ykg9_w-92" target="JTK3appr4KqWw-ykg9_w-93">
                    <mxGeometry relative="1" as="geometry">
                        <mxPoint x="935.08" y="719" as="targetPoint"/>
                    </mxGeometry>
                </mxCell>
                <mxCell id="JTK3appr4KqWw-ykg9_w-92" value="&lt;span style=&quot;font-size: 24px;&quot;&gt;4&lt;/span&gt;" style="rounded=0;whiteSpace=wrap;html=1;fillColor=#E6FFCC;strokeColor=#80FF00;fontColor=#80FF00;strokeWidth=2;" vertex="1" parent="JTK3appr4KqWw-ykg9_w-1">
                    <mxGeometry x="845.08" y="730" width="65" height="40" as="geometry"/>
                </mxCell>
                <mxCell id="JTK3appr4KqWw-ykg9_w-93" value="" style="ellipse;whiteSpace=wrap;html=1;aspect=fixed;strokeWidth=2;fillColor=#E6E6E6;strokeColor=#000000;" vertex="1" parent="JTK3appr4KqWw-ykg9_w-1">
                    <mxGeometry x="945.08" y="645" width="30" height="30" as="geometry"/>
                </mxCell>
            </root>
        </mxGraphModel>
    </diagram>
    <diagram name="horizontal" id="dq5ONF9qZWtO9Sbcv6ty">
        <mxGraphModel dx="2056" dy="1074" grid="1" gridSize="10" guides="1" tooltips="1" connect="1" arrows="1" fold="1" page="0" pageScale="1" pageWidth="1169" pageHeight="827" background="none" math="0" shadow="0">
            <root>
                <mxCell id="Y1hucedNhhdVeCLfP3kg-0"/>
                <mxCell id="Y1hucedNhhdVeCLfP3kg-1" parent="Y1hucedNhhdVeCLfP3kg-0"/>
                <mxCell id="Y1hucedNhhdVeCLfP3kg-2" style="rounded=0;orthogonalLoop=1;jettySize=auto;html=1;exitX=1;exitY=0.5;exitDx=0;exitDy=0;entryX=0;entryY=0.5;entryDx=0;entryDy=0;strokeWidth=2;endArrow=block;endFill=1;strokeColor=#FF0000;" edge="1" parent="Y1hucedNhhdVeCLfP3kg-1" source="Y1hucedNhhdVeCLfP3kg-3" target="Y1hucedNhhdVeCLfP3kg-8">
                    <mxGeometry relative="1" as="geometry"/>
                </mxCell>
                <mxCell id="Y1hucedNhhdVeCLfP3kg-3" value="&lt;font style=&quot;font-size: 24px;&quot;&gt;1&lt;/font&gt;" style="rounded=0;whiteSpace=wrap;html=1;fillColor=#FFCCCC;strokeColor=#FF0000;fontColor=#FF0000;strokeWidth=2;" vertex="1" parent="Y1hucedNhhdVeCLfP3kg-1">
                    <mxGeometry x="77.5" y="40" width="65" height="40" as="geometry"/>
                </mxCell>
                <mxCell id="Y1hucedNhhdVeCLfP3kg-4" value="" style="endArrow=none;html=1;rounded=0;strokeWidth=2;exitX=0.25;exitY=0;exitDx=0;exitDy=0;strokeColor=#FF0000;edgeStyle=orthogonalEdgeStyle;" edge="1" parent="Y1hucedNhhdVeCLfP3kg-1" source="Y1hucedNhhdVeCLfP3kg-3" target="Y1hucedNhhdVeCLfP3kg-6">
                    <mxGeometry width="50" height="50" relative="1" as="geometry">
                        <mxPoint x="167.5" y="60" as="sourcePoint"/>
                        <mxPoint x="170" as="targetPoint"/>
                        <Array as="points">
                            <mxPoint x="94" y="30"/>
                        </Array>
                    </mxGeometry>
                </mxCell>
                <mxCell id="Y1hucedNhhdVeCLfP3kg-5" value="" style="endArrow=block;html=1;rounded=0;strokeWidth=2;entryX=0;entryY=0.5;entryDx=0;entryDy=0;endFill=1;strokeColor=#FF0000;edgeStyle=orthogonalEdgeStyle;exitX=0.719;exitY=0.585;exitDx=0;exitDy=0;exitPerimeter=0;" edge="1" parent="Y1hucedNhhdVeCLfP3kg-1" source="Y1hucedNhhdVeCLfP3kg-6" target="Y1hucedNhhdVeCLfP3kg-3">
                    <mxGeometry width="50" height="50" relative="1" as="geometry">
                        <mxPoint x="50" y="-10" as="sourcePoint"/>
                        <mxPoint x="217.5" y="10" as="targetPoint"/>
                        <Array as="points">
                            <mxPoint x="60" y="30"/>
                            <mxPoint x="60" y="60"/>
                        </Array>
                    </mxGeometry>
                </mxCell>
                <mxCell id="Y1hucedNhhdVeCLfP3kg-6" value="" style="shape=waypoint;sketch=0;fillStyle=solid;size=6;pointerEvents=1;points=[];fillColor=none;resizable=0;rotatable=0;perimeter=centerPerimeter;snapToPoint=1;strokeWidth=0;strokeColor=none;" vertex="1" parent="Y1hucedNhhdVeCLfP3kg-1">
                    <mxGeometry x="77.5" y="20" width="20" height="20" as="geometry"/>
                </mxCell>
                <mxCell id="Y1hucedNhhdVeCLfP3kg-7" style="edgeStyle=orthogonalEdgeStyle;rounded=0;orthogonalLoop=1;jettySize=auto;html=1;exitX=1;exitY=0.5;exitDx=0;exitDy=0;entryX=0;entryY=0.5;entryDx=0;entryDy=0;strokeColor=#FF8000;endArrow=block;endFill=1;strokeWidth=2;" edge="1" parent="Y1hucedNhhdVeCLfP3kg-1" source="Y1hucedNhhdVeCLfP3kg-8" target="Y1hucedNhhdVeCLfP3kg-10">
                    <mxGeometry relative="1" as="geometry"/>
                </mxCell>
                <mxCell id="Y1hucedNhhdVeCLfP3kg-8" value="&lt;font style=&quot;font-size: 24px;&quot;&gt;2&lt;/font&gt;" style="rounded=0;whiteSpace=wrap;html=1;fillColor=#FFE6CC;strokeColor=#FF8000;fontColor=#FF8000;strokeWidth=2;" vertex="1" parent="Y1hucedNhhdVeCLfP3kg-1">
                    <mxGeometry x="180" y="40" width="65" height="40" as="geometry"/>
                </mxCell>
                <mxCell id="Y1hucedNhhdVeCLfP3kg-9" style="edgeStyle=orthogonalEdgeStyle;rounded=0;orthogonalLoop=1;jettySize=auto;html=1;exitX=1;exitY=0.5;exitDx=0;exitDy=0;entryX=0;entryY=0.5;entryDx=0;entryDy=0;strokeWidth=2;strokeColor=#FFFF00;endArrow=block;endFill=1;" edge="1" parent="Y1hucedNhhdVeCLfP3kg-1" source="Y1hucedNhhdVeCLfP3kg-10" target="Y1hucedNhhdVeCLfP3kg-12">
                    <mxGeometry relative="1" as="geometry"/>
                </mxCell>
                <mxCell id="Y1hucedNhhdVeCLfP3kg-10" value="&lt;span style=&quot;font-size: 24px;&quot;&gt;3&lt;/span&gt;" style="rounded=0;whiteSpace=wrap;html=1;fillColor=#FFFFCC;strokeColor=#FFFF00;fontColor=#FFFF00;strokeWidth=2;" vertex="1" parent="Y1hucedNhhdVeCLfP3kg-1">
                    <mxGeometry x="280" y="40" width="65" height="40" as="geometry"/>
                </mxCell>
                <mxCell id="Y1hucedNhhdVeCLfP3kg-11" style="edgeStyle=orthogonalEdgeStyle;rounded=0;orthogonalLoop=1;jettySize=auto;html=1;exitX=1;exitY=0.5;exitDx=0;exitDy=0;strokeWidth=2;endArrow=block;endFill=1;strokeColor=#80FF00;entryX=0;entryY=0.5;entryDx=0;entryDy=0;" edge="1" parent="Y1hucedNhhdVeCLfP3kg-1" source="Y1hucedNhhdVeCLfP3kg-12" target="NpgBYb4ECOLwAC_bzR54-0">
                    <mxGeometry relative="1" as="geometry">
                        <mxPoint x="470" y="90" as="targetPoint"/>
                    </mxGeometry>
                </mxCell>
                <mxCell id="Y1hucedNhhdVeCLfP3kg-12" value="&lt;span style=&quot;font-size: 24px;&quot;&gt;4&lt;/span&gt;" style="rounded=0;whiteSpace=wrap;html=1;fillColor=#E6FFCC;strokeColor=#80FF00;fontColor=#80FF00;strokeWidth=2;" vertex="1" parent="Y1hucedNhhdVeCLfP3kg-1">
                    <mxGeometry x="380" y="40" width="65" height="40" as="geometry"/>
                </mxCell>
                <mxCell id="NpgBYb4ECOLwAC_bzR54-0" value="" style="ellipse;whiteSpace=wrap;html=1;aspect=fixed;strokeWidth=2;fillColor=#E6E6E6;strokeColor=#000000;" vertex="1" parent="Y1hucedNhhdVeCLfP3kg-1">
                    <mxGeometry x="480" y="45" width="30" height="30" as="geometry"/>
                </mxCell>
                <mxCell id="NpgBYb4ECOLwAC_bzR54-1" style="rounded=0;orthogonalLoop=1;jettySize=auto;html=1;exitX=1;exitY=0.5;exitDx=0;exitDy=0;strokeWidth=2;endArrow=block;endFill=1;strokeColor=#FF0000;entryX=0.5;entryY=0;entryDx=0;entryDy=0;edgeStyle=orthogonalEdgeStyle;" edge="1" source="NpgBYb4ECOLwAC_bzR54-2" target="NpgBYb4ECOLwAC_bzR54-9" parent="Y1hucedNhhdVeCLfP3kg-1">
                    <mxGeometry relative="1" as="geometry">
                        <mxPoint x="210" y="170" as="targetPoint"/>
                    </mxGeometry>
                </mxCell>
                <mxCell id="NpgBYb4ECOLwAC_bzR54-2" value="&lt;font style=&quot;font-size: 24px;&quot;&gt;1&lt;/font&gt;" style="rounded=0;whiteSpace=wrap;html=1;fillColor=#FFCCCC;strokeColor=#FF0000;fontColor=#FF0000;strokeWidth=2;" vertex="1" parent="Y1hucedNhhdVeCLfP3kg-1">
                    <mxGeometry x="180" y="150" width="65" height="40" as="geometry"/>
                </mxCell>
                <mxCell id="NpgBYb4ECOLwAC_bzR54-3" value="" style="endArrow=none;html=1;rounded=0;strokeWidth=2;exitX=0.25;exitY=0;exitDx=0;exitDy=0;strokeColor=#FF0000;edgeStyle=orthogonalEdgeStyle;" edge="1" source="NpgBYb4ECOLwAC_bzR54-2" parent="Y1hucedNhhdVeCLfP3kg-1">
                    <mxGeometry width="50" height="50" relative="1" as="geometry">
                        <mxPoint x="270" y="170" as="sourcePoint"/>
                        <mxPoint x="190" y="140" as="targetPoint"/>
                        <Array as="points">
                            <mxPoint x="196" y="140"/>
                        </Array>
                    </mxGeometry>
                </mxCell>
                <mxCell id="NpgBYb4ECOLwAC_bzR54-4" value="" style="endArrow=block;html=1;rounded=0;strokeWidth=2;entryX=0;entryY=0.5;entryDx=0;entryDy=0;endFill=1;strokeColor=#FF0000;edgeStyle=orthogonalEdgeStyle;exitX=0.719;exitY=0.585;exitDx=0;exitDy=0;exitPerimeter=0;" edge="1" target="NpgBYb4ECOLwAC_bzR54-2" parent="Y1hucedNhhdVeCLfP3kg-1">
                    <mxGeometry width="50" height="50" relative="1" as="geometry">
                        <mxPoint x="190" y="140" as="sourcePoint"/>
                        <mxPoint x="320" y="120" as="targetPoint"/>
                        <Array as="points">
                            <mxPoint x="162.5" y="140"/>
                            <mxPoint x="162.5" y="170"/>
                        </Array>
                    </mxGeometry>
                </mxCell>
                <mxCell id="NpgBYb4ECOLwAC_bzR54-6" style="edgeStyle=orthogonalEdgeStyle;rounded=0;orthogonalLoop=1;jettySize=auto;html=1;exitX=1;exitY=0.5;exitDx=0;exitDy=0;entryX=0.5;entryY=1;entryDx=0;entryDy=0;strokeColor=#FF8000;endArrow=block;endFill=1;strokeWidth=2;" edge="1" source="NpgBYb4ECOLwAC_bzR54-7" target="NpgBYb4ECOLwAC_bzR54-9" parent="Y1hucedNhhdVeCLfP3kg-1">
                    <mxGeometry relative="1" as="geometry"/>
                </mxCell>
                <mxCell id="NpgBYb4ECOLwAC_bzR54-7" value="&lt;font style=&quot;font-size: 24px;&quot;&gt;2&lt;/font&gt;" style="rounded=0;whiteSpace=wrap;html=1;fillColor=#FFE6CC;strokeColor=#FF8000;fontColor=#FF8000;strokeWidth=2;" vertex="1" parent="Y1hucedNhhdVeCLfP3kg-1">
                    <mxGeometry x="180" y="230" width="65" height="40" as="geometry"/>
                </mxCell>
                <mxCell id="NpgBYb4ECOLwAC_bzR54-8" style="edgeStyle=orthogonalEdgeStyle;rounded=0;orthogonalLoop=1;jettySize=auto;html=1;exitX=1;exitY=0.5;exitDx=0;exitDy=0;entryX=0;entryY=0.5;entryDx=0;entryDy=0;strokeWidth=2;strokeColor=#FFFF00;endArrow=block;endFill=1;" edge="1" source="NpgBYb4ECOLwAC_bzR54-9" target="NpgBYb4ECOLwAC_bzR54-11" parent="Y1hucedNhhdVeCLfP3kg-1">
                    <mxGeometry relative="1" as="geometry"/>
                </mxCell>
                <mxCell id="NpgBYb4ECOLwAC_bzR54-9" value="&lt;span style=&quot;font-size: 24px;&quot;&gt;3&lt;/span&gt;" style="rounded=0;whiteSpace=wrap;html=1;fillColor=#FFFFCC;strokeColor=#FFFF00;fontColor=#FFFF00;strokeWidth=2;" vertex="1" parent="Y1hucedNhhdVeCLfP3kg-1">
                    <mxGeometry x="280" y="190" width="65" height="40" as="geometry"/>
                </mxCell>
                <mxCell id="NpgBYb4ECOLwAC_bzR54-10" style="edgeStyle=orthogonalEdgeStyle;rounded=0;orthogonalLoop=1;jettySize=auto;html=1;exitX=1;exitY=0.5;exitDx=0;exitDy=0;strokeWidth=2;endArrow=block;endFill=1;strokeColor=#80FF00;entryX=0;entryY=0.5;entryDx=0;entryDy=0;" edge="1" source="NpgBYb4ECOLwAC_bzR54-11" target="NpgBYb4ECOLwAC_bzR54-12" parent="Y1hucedNhhdVeCLfP3kg-1">
                    <mxGeometry relative="1" as="geometry">
                        <mxPoint x="470" y="240" as="targetPoint"/>
                    </mxGeometry>
                </mxCell>
                <mxCell id="NpgBYb4ECOLwAC_bzR54-11" value="&lt;span style=&quot;font-size: 24px;&quot;&gt;4&lt;/span&gt;" style="rounded=0;whiteSpace=wrap;html=1;fillColor=#E6FFCC;strokeColor=#80FF00;fontColor=#80FF00;strokeWidth=2;" vertex="1" parent="Y1hucedNhhdVeCLfP3kg-1">
                    <mxGeometry x="380" y="190" width="65" height="40" as="geometry"/>
                </mxCell>
                <mxCell id="NpgBYb4ECOLwAC_bzR54-12" value="" style="ellipse;whiteSpace=wrap;html=1;aspect=fixed;strokeWidth=2;fillColor=#E6E6E6;strokeColor=#000000;" vertex="1" parent="Y1hucedNhhdVeCLfP3kg-1">
                    <mxGeometry x="480" y="195" width="30" height="30" as="geometry"/>
                </mxCell>
                <mxCell id="zYycisEK9yNTsAuaW_Yo-0" style="rounded=0;orthogonalLoop=1;jettySize=auto;html=1;exitX=1;exitY=0.5;exitDx=0;exitDy=0;strokeWidth=2;endArrow=block;endFill=1;strokeColor=#FF0000;entryX=0.5;entryY=0;entryDx=0;entryDy=0;edgeStyle=orthogonalEdgeStyle;" edge="1" source="zYycisEK9yNTsAuaW_Yo-1" target="zYycisEK9yNTsAuaW_Yo-9" parent="Y1hucedNhhdVeCLfP3kg-1">
                    <mxGeometry relative="1" as="geometry">
                        <mxPoint x="210" y="330" as="targetPoint"/>
                    </mxGeometry>
                </mxCell>
                <mxCell id="zYycisEK9yNTsAuaW_Yo-1" value="&lt;font style=&quot;font-size: 24px;&quot;&gt;1&lt;/font&gt;" style="rounded=0;whiteSpace=wrap;html=1;fillColor=#FFCCCC;strokeColor=#FF0000;fontColor=#FF0000;strokeWidth=2;" vertex="1" parent="Y1hucedNhhdVeCLfP3kg-1">
                    <mxGeometry x="280" y="310" width="65" height="40" as="geometry"/>
                </mxCell>
                <mxCell id="zYycisEK9yNTsAuaW_Yo-2" value="" style="endArrow=none;html=1;rounded=0;strokeWidth=2;exitX=0.25;exitY=0;exitDx=0;exitDy=0;strokeColor=#FF0000;edgeStyle=orthogonalEdgeStyle;" edge="1" source="zYycisEK9yNTsAuaW_Yo-1" parent="Y1hucedNhhdVeCLfP3kg-1">
                    <mxGeometry width="50" height="50" relative="1" as="geometry">
                        <mxPoint x="370" y="330" as="sourcePoint"/>
                        <mxPoint x="290" y="300" as="targetPoint"/>
                        <Array as="points">
                            <mxPoint x="296" y="300"/>
                        </Array>
                    </mxGeometry>
                </mxCell>
                <mxCell id="zYycisEK9yNTsAuaW_Yo-3" value="" style="endArrow=block;html=1;rounded=0;strokeWidth=2;entryX=0;entryY=0.5;entryDx=0;entryDy=0;endFill=1;strokeColor=#FF0000;edgeStyle=orthogonalEdgeStyle;exitX=0.719;exitY=0.585;exitDx=0;exitDy=0;exitPerimeter=0;" edge="1" target="zYycisEK9yNTsAuaW_Yo-1" parent="Y1hucedNhhdVeCLfP3kg-1">
                    <mxGeometry width="50" height="50" relative="1" as="geometry">
                        <mxPoint x="290" y="300" as="sourcePoint"/>
                        <mxPoint x="420" y="280" as="targetPoint"/>
                        <Array as="points">
                            <mxPoint x="262.5" y="300"/>
                            <mxPoint x="262.5" y="330"/>
                        </Array>
                    </mxGeometry>
                </mxCell>
                <mxCell id="zYycisEK9yNTsAuaW_Yo-4" style="rounded=0;orthogonalLoop=1;jettySize=auto;html=1;exitX=1;exitY=0.5;exitDx=0;exitDy=0;entryX=0;entryY=0.5;entryDx=0;entryDy=0;strokeColor=#FF8000;endArrow=block;endFill=1;strokeWidth=2;" edge="1" source="zYycisEK9yNTsAuaW_Yo-5" target="zYycisEK9yNTsAuaW_Yo-7" parent="Y1hucedNhhdVeCLfP3kg-1">
                    <mxGeometry relative="1" as="geometry"/>
                </mxCell>
                <mxCell id="zYycisEK9yNTsAuaW_Yo-5" value="&lt;font style=&quot;font-size: 24px;&quot;&gt;2&lt;/font&gt;" style="rounded=0;whiteSpace=wrap;html=1;fillColor=#FFE6CC;strokeColor=#FF8000;fontColor=#FF8000;strokeWidth=2;" vertex="1" parent="Y1hucedNhhdVeCLfP3kg-1">
                    <mxGeometry x="180" y="390" width="65" height="40" as="geometry"/>
                </mxCell>
                <mxCell id="zYycisEK9yNTsAuaW_Yo-6" style="edgeStyle=orthogonalEdgeStyle;rounded=0;orthogonalLoop=1;jettySize=auto;html=1;exitX=1;exitY=0.5;exitDx=0;exitDy=0;entryX=0.5;entryY=1;entryDx=0;entryDy=0;strokeWidth=2;strokeColor=#FFFF00;endArrow=block;endFill=1;" edge="1" source="zYycisEK9yNTsAuaW_Yo-7" target="zYycisEK9yNTsAuaW_Yo-9" parent="Y1hucedNhhdVeCLfP3kg-1">
                    <mxGeometry relative="1" as="geometry"/>
                </mxCell>
                <mxCell id="zYycisEK9yNTsAuaW_Yo-7" value="&lt;span style=&quot;font-size: 24px;&quot;&gt;3&lt;/span&gt;" style="rounded=0;whiteSpace=wrap;html=1;fillColor=#FFFFCC;strokeColor=#FFFF00;fontColor=#FFFF00;strokeWidth=2;" vertex="1" parent="Y1hucedNhhdVeCLfP3kg-1">
                    <mxGeometry x="280" y="390" width="65" height="40" as="geometry"/>
                </mxCell>
                <mxCell id="zYycisEK9yNTsAuaW_Yo-8" style="edgeStyle=orthogonalEdgeStyle;rounded=0;orthogonalLoop=1;jettySize=auto;html=1;exitX=1;exitY=0.5;exitDx=0;exitDy=0;strokeWidth=2;endArrow=block;endFill=1;strokeColor=#80FF00;entryX=0;entryY=0.5;entryDx=0;entryDy=0;" edge="1" source="zYycisEK9yNTsAuaW_Yo-9" target="zYycisEK9yNTsAuaW_Yo-10" parent="Y1hucedNhhdVeCLfP3kg-1">
                    <mxGeometry relative="1" as="geometry">
                        <mxPoint x="470" y="400" as="targetPoint"/>
                    </mxGeometry>
                </mxCell>
                <mxCell id="zYycisEK9yNTsAuaW_Yo-9" value="&lt;span style=&quot;font-size: 24px;&quot;&gt;4&lt;/span&gt;" style="rounded=0;whiteSpace=wrap;html=1;fillColor=#E6FFCC;strokeColor=#80FF00;fontColor=#80FF00;strokeWidth=2;" vertex="1" parent="Y1hucedNhhdVeCLfP3kg-1">
                    <mxGeometry x="380" y="350" width="65" height="40" as="geometry"/>
                </mxCell>
                <mxCell id="zYycisEK9yNTsAuaW_Yo-10" value="" style="ellipse;whiteSpace=wrap;html=1;aspect=fixed;strokeWidth=2;fillColor=#E6E6E6;strokeColor=#000000;" vertex="1" parent="Y1hucedNhhdVeCLfP3kg-1">
                    <mxGeometry x="480" y="355" width="30" height="30" as="geometry"/>
                </mxCell>
                <mxCell id="XBxHnxi8lhR0ySUC1D3F-0" style="rounded=0;orthogonalLoop=1;jettySize=auto;html=1;exitX=1;exitY=0.5;exitDx=0;exitDy=0;strokeWidth=2;endArrow=block;endFill=1;strokeColor=#FF0000;entryX=0;entryY=0.5;entryDx=0;entryDy=0;" edge="1" source="XBxHnxi8lhR0ySUC1D3F-1" target="XBxHnxi8lhR0ySUC1D3F-7" parent="Y1hucedNhhdVeCLfP3kg-1">
                    <mxGeometry relative="1" as="geometry">
                        <mxPoint x="210" y="520" as="targetPoint"/>
                    </mxGeometry>
                </mxCell>
                <mxCell id="XBxHnxi8lhR0ySUC1D3F-1" value="&lt;font style=&quot;font-size: 24px;&quot;&gt;1&lt;/font&gt;" style="rounded=0;whiteSpace=wrap;html=1;fillColor=#FFCCCC;strokeColor=#FF0000;fontColor=#FF0000;strokeWidth=2;" vertex="1" parent="Y1hucedNhhdVeCLfP3kg-1">
                    <mxGeometry x="180" y="500" width="65" height="40" as="geometry"/>
                </mxCell>
                <mxCell id="XBxHnxi8lhR0ySUC1D3F-2" value="" style="endArrow=none;html=1;rounded=0;strokeWidth=2;exitX=0.25;exitY=0;exitDx=0;exitDy=0;strokeColor=#FF0000;edgeStyle=orthogonalEdgeStyle;" edge="1" source="XBxHnxi8lhR0ySUC1D3F-1" parent="Y1hucedNhhdVeCLfP3kg-1">
                    <mxGeometry width="50" height="50" relative="1" as="geometry">
                        <mxPoint x="270" y="520" as="sourcePoint"/>
                        <mxPoint x="190" y="490" as="targetPoint"/>
                        <Array as="points">
                            <mxPoint x="196" y="490"/>
                        </Array>
                    </mxGeometry>
                </mxCell>
                <mxCell id="XBxHnxi8lhR0ySUC1D3F-3" value="" style="endArrow=block;html=1;rounded=0;strokeWidth=2;entryX=0;entryY=0.5;entryDx=0;entryDy=0;endFill=1;strokeColor=#FF0000;edgeStyle=orthogonalEdgeStyle;exitX=0.719;exitY=0.585;exitDx=0;exitDy=0;exitPerimeter=0;" edge="1" target="XBxHnxi8lhR0ySUC1D3F-1" parent="Y1hucedNhhdVeCLfP3kg-1">
                    <mxGeometry width="50" height="50" relative="1" as="geometry">
                        <mxPoint x="190" y="490" as="sourcePoint"/>
                        <mxPoint x="320" y="470" as="targetPoint"/>
                        <Array as="points">
                            <mxPoint x="162.5" y="490"/>
                            <mxPoint x="162.5" y="520"/>
                        </Array>
                    </mxGeometry>
                </mxCell>
                <mxCell id="XBxHnxi8lhR0ySUC1D3F-4" style="edgeStyle=orthogonalEdgeStyle;rounded=0;orthogonalLoop=1;jettySize=auto;html=1;exitX=1;exitY=0.5;exitDx=0;exitDy=0;entryX=0.5;entryY=1;entryDx=0;entryDy=0;strokeColor=#FFFF00;endArrow=block;endFill=1;strokeWidth=2;" edge="1" source="XBxHnxi8lhR0ySUC1D3F-5" target="XBxHnxi8lhR0ySUC1D3F-9" parent="Y1hucedNhhdVeCLfP3kg-1">
                    <mxGeometry relative="1" as="geometry"/>
                </mxCell>
                <mxCell id="XBxHnxi8lhR0ySUC1D3F-5" value="&lt;font style=&quot;font-size: 24px;&quot;&gt;3&lt;/font&gt;" style="rounded=0;whiteSpace=wrap;html=1;fillColor=#FFFFCC;strokeColor=#FFFF00;fontColor=#FFFF00;strokeWidth=2;" vertex="1" parent="Y1hucedNhhdVeCLfP3kg-1">
                    <mxGeometry x="280" y="580" width="65" height="40" as="geometry"/>
                </mxCell>
                <mxCell id="XBxHnxi8lhR0ySUC1D3F-6" style="edgeStyle=orthogonalEdgeStyle;rounded=0;orthogonalLoop=1;jettySize=auto;html=1;exitX=1;exitY=0.5;exitDx=0;exitDy=0;entryX=0.5;entryY=0;entryDx=0;entryDy=0;strokeWidth=2;strokeColor=#FF8000;endArrow=block;endFill=1;" edge="1" source="XBxHnxi8lhR0ySUC1D3F-7" target="XBxHnxi8lhR0ySUC1D3F-9" parent="Y1hucedNhhdVeCLfP3kg-1">
                    <mxGeometry relative="1" as="geometry"/>
                </mxCell>
                <mxCell id="XBxHnxi8lhR0ySUC1D3F-7" value="&lt;span style=&quot;font-size: 24px;&quot;&gt;2&lt;/span&gt;" style="rounded=0;whiteSpace=wrap;html=1;fillColor=#FFE6CC;strokeColor=#FF8000;fontColor=#FF8000;strokeWidth=2;" vertex="1" parent="Y1hucedNhhdVeCLfP3kg-1">
                    <mxGeometry x="280" y="500" width="65" height="40" as="geometry"/>
                </mxCell>
                <mxCell id="XBxHnxi8lhR0ySUC1D3F-8" style="edgeStyle=orthogonalEdgeStyle;rounded=0;orthogonalLoop=1;jettySize=auto;html=1;exitX=1;exitY=0.5;exitDx=0;exitDy=0;strokeWidth=2;endArrow=block;endFill=1;strokeColor=#80FF00;entryX=0;entryY=0.5;entryDx=0;entryDy=0;" edge="1" source="XBxHnxi8lhR0ySUC1D3F-9" target="XBxHnxi8lhR0ySUC1D3F-10" parent="Y1hucedNhhdVeCLfP3kg-1">
                    <mxGeometry relative="1" as="geometry">
                        <mxPoint x="470" y="590" as="targetPoint"/>
                    </mxGeometry>
                </mxCell>
                <mxCell id="XBxHnxi8lhR0ySUC1D3F-9" value="&lt;span style=&quot;font-size: 24px;&quot;&gt;4&lt;/span&gt;" style="rounded=0;whiteSpace=wrap;html=1;fillColor=#E6FFCC;strokeColor=#80FF00;fontColor=#80FF00;strokeWidth=2;" vertex="1" parent="Y1hucedNhhdVeCLfP3kg-1">
                    <mxGeometry x="380" y="540" width="65" height="40" as="geometry"/>
                </mxCell>
                <mxCell id="XBxHnxi8lhR0ySUC1D3F-10" value="" style="ellipse;whiteSpace=wrap;html=1;aspect=fixed;strokeWidth=2;fillColor=#E6E6E6;strokeColor=#000000;" vertex="1" parent="Y1hucedNhhdVeCLfP3kg-1">
                    <mxGeometry x="480" y="545" width="30" height="30" as="geometry"/>
                </mxCell>
                <mxCell id="N4e8Z_NztzWRrxCLNAbO-0" style="rounded=0;orthogonalLoop=1;jettySize=auto;html=1;exitX=1;exitY=0.5;exitDx=0;exitDy=0;strokeWidth=2;endArrow=block;endFill=1;strokeColor=#FF0000;entryX=0;entryY=0.5;entryDx=0;entryDy=0;" edge="1" source="N4e8Z_NztzWRrxCLNAbO-1" target="N4e8Z_NztzWRrxCLNAbO-7" parent="Y1hucedNhhdVeCLfP3kg-1">
                    <mxGeometry relative="1" as="geometry">
                        <mxPoint x="247.57" y="700" as="targetPoint"/>
                    </mxGeometry>
                </mxCell>
                <mxCell id="N4e8Z_NztzWRrxCLNAbO-1" value="&lt;font style=&quot;font-size: 24px;&quot;&gt;1&lt;/font&gt;" style="rounded=0;whiteSpace=wrap;html=1;fillColor=#FFCCCC;strokeColor=#FF0000;fontColor=#FF0000;strokeWidth=2;" vertex="1" parent="Y1hucedNhhdVeCLfP3kg-1">
                    <mxGeometry x="217.57" y="680" width="65" height="40" as="geometry"/>
                </mxCell>
                <mxCell id="N4e8Z_NztzWRrxCLNAbO-2" value="" style="endArrow=none;html=1;rounded=0;strokeWidth=2;exitX=0.25;exitY=0;exitDx=0;exitDy=0;strokeColor=#FF0000;edgeStyle=orthogonalEdgeStyle;" edge="1" source="N4e8Z_NztzWRrxCLNAbO-1" parent="Y1hucedNhhdVeCLfP3kg-1">
                    <mxGeometry width="50" height="50" relative="1" as="geometry">
                        <mxPoint x="307.57" y="700" as="sourcePoint"/>
                        <mxPoint x="227.57" y="670" as="targetPoint"/>
                        <Array as="points">
                            <mxPoint x="234.07" y="670"/>
                        </Array>
                    </mxGeometry>
                </mxCell>
                <mxCell id="N4e8Z_NztzWRrxCLNAbO-3" value="" style="endArrow=block;html=1;rounded=0;strokeWidth=2;entryX=0;entryY=0.5;entryDx=0;entryDy=0;endFill=1;strokeColor=#FF0000;edgeStyle=orthogonalEdgeStyle;exitX=0.719;exitY=0.585;exitDx=0;exitDy=0;exitPerimeter=0;" edge="1" target="N4e8Z_NztzWRrxCLNAbO-1" parent="Y1hucedNhhdVeCLfP3kg-1">
                    <mxGeometry width="50" height="50" relative="1" as="geometry">
                        <mxPoint x="227.57" y="670" as="sourcePoint"/>
                        <mxPoint x="357.57" y="650" as="targetPoint"/>
                        <Array as="points">
                            <mxPoint x="200.07" y="670"/>
                            <mxPoint x="200.07" y="700"/>
                        </Array>
                    </mxGeometry>
                </mxCell>
                <mxCell id="N4e8Z_NztzWRrxCLNAbO-4" style="rounded=0;orthogonalLoop=1;jettySize=auto;html=1;exitX=1;exitY=0.5;exitDx=0;exitDy=0;entryX=0;entryY=0.5;entryDx=0;entryDy=0;strokeColor=#FFFF00;endArrow=block;endFill=1;strokeWidth=2;" edge="1" source="N4e8Z_NztzWRrxCLNAbO-5" target="N4e8Z_NztzWRrxCLNAbO-9" parent="Y1hucedNhhdVeCLfP3kg-1">
                    <mxGeometry relative="1" as="geometry"/>
                </mxCell>
                <mxCell id="N4e8Z_NztzWRrxCLNAbO-5" value="&lt;font style=&quot;font-size: 24px;&quot;&gt;3&lt;/font&gt;" style="rounded=0;whiteSpace=wrap;html=1;fillColor=#FFFFCC;strokeColor=#FFFF00;fontColor=#FFFF00;strokeWidth=2;" vertex="1" parent="Y1hucedNhhdVeCLfP3kg-1">
                    <mxGeometry x="217.57" y="760" width="65" height="40" as="geometry"/>
                </mxCell>
                <mxCell id="N4e8Z_NztzWRrxCLNAbO-6" style="edgeStyle=orthogonalEdgeStyle;rounded=0;orthogonalLoop=1;jettySize=auto;html=1;exitX=1;exitY=0.5;exitDx=0;exitDy=0;entryX=0.5;entryY=0;entryDx=0;entryDy=0;strokeWidth=2;strokeColor=#FF8000;endArrow=block;endFill=1;" edge="1" source="N4e8Z_NztzWRrxCLNAbO-7" target="N4e8Z_NztzWRrxCLNAbO-10" parent="Y1hucedNhhdVeCLfP3kg-1">
                    <mxGeometry relative="1" as="geometry"/>
                </mxCell>
                <mxCell id="N4e8Z_NztzWRrxCLNAbO-7" value="&lt;span style=&quot;font-size: 24px;&quot;&gt;2&lt;/span&gt;" style="rounded=0;whiteSpace=wrap;html=1;fillColor=#FFE6CC;strokeColor=#FF8000;fontColor=#FF8000;strokeWidth=2;" vertex="1" parent="Y1hucedNhhdVeCLfP3kg-1">
                    <mxGeometry x="317.57" y="680" width="65" height="40" as="geometry"/>
                </mxCell>
                <mxCell id="N4e8Z_NztzWRrxCLNAbO-8" style="edgeStyle=orthogonalEdgeStyle;rounded=0;orthogonalLoop=1;jettySize=auto;html=1;exitX=1;exitY=0.5;exitDx=0;exitDy=0;strokeWidth=2;endArrow=block;endFill=1;strokeColor=#80FF00;entryX=0.5;entryY=1;entryDx=0;entryDy=0;" edge="1" source="N4e8Z_NztzWRrxCLNAbO-9" target="N4e8Z_NztzWRrxCLNAbO-10" parent="Y1hucedNhhdVeCLfP3kg-1">
                    <mxGeometry relative="1" as="geometry">
                        <mxPoint x="407.57" y="770" as="targetPoint"/>
                    </mxGeometry>
                </mxCell>
                <mxCell id="N4e8Z_NztzWRrxCLNAbO-9" value="&lt;span style=&quot;font-size: 24px;&quot;&gt;4&lt;/span&gt;" style="rounded=0;whiteSpace=wrap;html=1;fillColor=#E6FFCC;strokeColor=#80FF00;fontColor=#80FF00;strokeWidth=2;" vertex="1" parent="Y1hucedNhhdVeCLfP3kg-1">
                    <mxGeometry x="317.57" y="760" width="65" height="40" as="geometry"/>
                </mxCell>
                <mxCell id="N4e8Z_NztzWRrxCLNAbO-10" value="" style="ellipse;whiteSpace=wrap;html=1;aspect=fixed;strokeWidth=2;fillColor=#E6E6E6;strokeColor=#000000;" vertex="1" parent="Y1hucedNhhdVeCLfP3kg-1">
                    <mxGeometry x="417.57" y="725" width="30" height="30" as="geometry"/>
                </mxCell>
                <mxCell id="N4e8Z_NztzWRrxCLNAbO-22" style="rounded=0;orthogonalLoop=1;jettySize=auto;html=1;exitX=1;exitY=0.5;exitDx=0;exitDy=0;strokeWidth=2;endArrow=block;endFill=1;strokeColor=#FF0000;entryX=0;entryY=0.5;entryDx=0;entryDy=0;" edge="1" source="N4e8Z_NztzWRrxCLNAbO-23" target="N4e8Z_NztzWRrxCLNAbO-29" parent="Y1hucedNhhdVeCLfP3kg-1">
                    <mxGeometry relative="1" as="geometry">
                        <mxPoint x="677.5" y="210" as="targetPoint"/>
                    </mxGeometry>
                </mxCell>
                <mxCell id="N4e8Z_NztzWRrxCLNAbO-34" style="edgeStyle=orthogonalEdgeStyle;rounded=0;orthogonalLoop=1;jettySize=auto;html=1;exitX=0.5;exitY=0;exitDx=0;exitDy=0;entryX=0;entryY=0.5;entryDx=0;entryDy=0;strokeColor=#FF0000;strokeWidth=2;" edge="1" parent="Y1hucedNhhdVeCLfP3kg-1" source="N4e8Z_NztzWRrxCLNAbO-23" target="N4e8Z_NztzWRrxCLNAbO-27">
                    <mxGeometry relative="1" as="geometry"/>
                </mxCell>
                <mxCell id="N4e8Z_NztzWRrxCLNAbO-35" style="edgeStyle=orthogonalEdgeStyle;rounded=0;orthogonalLoop=1;jettySize=auto;html=1;exitX=0.5;exitY=1;exitDx=0;exitDy=0;entryX=0;entryY=0.5;entryDx=0;entryDy=0;strokeWidth=2;strokeColor=#FF0000;" edge="1" parent="Y1hucedNhhdVeCLfP3kg-1" source="N4e8Z_NztzWRrxCLNAbO-23" target="N4e8Z_NztzWRrxCLNAbO-31">
                    <mxGeometry relative="1" as="geometry"/>
                </mxCell>
                <mxCell id="N4e8Z_NztzWRrxCLNAbO-23" value="&lt;font style=&quot;font-size: 24px;&quot;&gt;1&lt;/font&gt;" style="rounded=0;whiteSpace=wrap;html=1;fillColor=#FFCCCC;strokeColor=#FF0000;fontColor=#FF0000;strokeWidth=2;" vertex="1" parent="Y1hucedNhhdVeCLfP3kg-1">
                    <mxGeometry x="727.5" y="139" width="65" height="40" as="geometry"/>
                </mxCell>
                <mxCell id="N4e8Z_NztzWRrxCLNAbO-24" value="" style="endArrow=none;html=1;rounded=0;strokeWidth=2;exitX=0.25;exitY=0;exitDx=0;exitDy=0;strokeColor=#FF0000;edgeStyle=orthogonalEdgeStyle;" edge="1" source="N4e8Z_NztzWRrxCLNAbO-23" parent="Y1hucedNhhdVeCLfP3kg-1">
                    <mxGeometry width="50" height="50" relative="1" as="geometry">
                        <mxPoint x="817.5" y="159" as="sourcePoint"/>
                        <mxPoint x="737.5" y="129" as="targetPoint"/>
                        <Array as="points">
                            <mxPoint x="743.5" y="129"/>
                        </Array>
                    </mxGeometry>
                </mxCell>
                <mxCell id="N4e8Z_NztzWRrxCLNAbO-25" value="" style="endArrow=block;html=1;rounded=0;strokeWidth=2;entryX=0;entryY=0.5;entryDx=0;entryDy=0;endFill=1;strokeColor=#FF0000;edgeStyle=orthogonalEdgeStyle;exitX=0.719;exitY=0.585;exitDx=0;exitDy=0;exitPerimeter=0;" edge="1" target="N4e8Z_NztzWRrxCLNAbO-23" parent="Y1hucedNhhdVeCLfP3kg-1">
                    <mxGeometry width="50" height="50" relative="1" as="geometry">
                        <mxPoint x="737.5" y="129" as="sourcePoint"/>
                        <mxPoint x="867.5" y="109" as="targetPoint"/>
                        <Array as="points">
                            <mxPoint x="710" y="129"/>
                            <mxPoint x="710" y="159"/>
                        </Array>
                    </mxGeometry>
                </mxCell>
                <mxCell id="N4e8Z_NztzWRrxCLNAbO-26" style="rounded=0;orthogonalLoop=1;jettySize=auto;html=1;exitX=1;exitY=0.5;exitDx=0;exitDy=0;entryX=0.5;entryY=0;entryDx=0;entryDy=0;strokeColor=#FF8000;endArrow=block;endFill=1;strokeWidth=2;edgeStyle=orthogonalEdgeStyle;" edge="1" source="N4e8Z_NztzWRrxCLNAbO-27" target="N4e8Z_NztzWRrxCLNAbO-32" parent="Y1hucedNhhdVeCLfP3kg-1">
                    <mxGeometry relative="1" as="geometry"/>
                </mxCell>
                <mxCell id="N4e8Z_NztzWRrxCLNAbO-27" value="&lt;font style=&quot;font-size: 24px;&quot;&gt;2&lt;/font&gt;" style="rounded=0;whiteSpace=wrap;html=1;fillColor=#FFE6CC;strokeColor=#FF8000;fontColor=#FF8000;strokeWidth=2;" vertex="1" parent="Y1hucedNhhdVeCLfP3kg-1">
                    <mxGeometry x="827.5" y="80" width="65" height="40" as="geometry"/>
                </mxCell>
                <mxCell id="N4e8Z_NztzWRrxCLNAbO-28" style="edgeStyle=orthogonalEdgeStyle;rounded=0;orthogonalLoop=1;jettySize=auto;html=1;exitX=1;exitY=0.5;exitDx=0;exitDy=0;entryX=0;entryY=0.5;entryDx=0;entryDy=0;strokeWidth=2;strokeColor=#FFFF00;endArrow=block;endFill=1;" edge="1" source="N4e8Z_NztzWRrxCLNAbO-29" target="N4e8Z_NztzWRrxCLNAbO-32" parent="Y1hucedNhhdVeCLfP3kg-1">
                    <mxGeometry relative="1" as="geometry"/>
                </mxCell>
                <mxCell id="N4e8Z_NztzWRrxCLNAbO-29" value="&lt;span style=&quot;font-size: 24px;&quot;&gt;3&lt;/span&gt;" style="rounded=0;whiteSpace=wrap;html=1;fillColor=#FFFFCC;strokeColor=#FFFF00;fontColor=#FFFF00;strokeWidth=2;" vertex="1" parent="Y1hucedNhhdVeCLfP3kg-1">
                    <mxGeometry x="827.5" y="139" width="65" height="40" as="geometry"/>
                </mxCell>
                <mxCell id="N4e8Z_NztzWRrxCLNAbO-30" style="edgeStyle=orthogonalEdgeStyle;rounded=0;orthogonalLoop=1;jettySize=auto;html=1;exitX=1;exitY=0.5;exitDx=0;exitDy=0;strokeWidth=2;endArrow=block;endFill=1;strokeColor=#80FF00;entryX=0.5;entryY=1;entryDx=0;entryDy=0;" edge="1" source="N4e8Z_NztzWRrxCLNAbO-31" target="N4e8Z_NztzWRrxCLNAbO-32" parent="Y1hucedNhhdVeCLfP3kg-1">
                    <mxGeometry relative="1" as="geometry">
                        <mxPoint x="917.5" y="189" as="targetPoint"/>
                    </mxGeometry>
                </mxCell>
                <mxCell id="N4e8Z_NztzWRrxCLNAbO-31" value="&lt;span style=&quot;font-size: 24px;&quot;&gt;4&lt;/span&gt;" style="rounded=0;whiteSpace=wrap;html=1;fillColor=#E6FFCC;strokeColor=#80FF00;fontColor=#80FF00;strokeWidth=2;" vertex="1" parent="Y1hucedNhhdVeCLfP3kg-1">
                    <mxGeometry x="827.5" y="200" width="65" height="40" as="geometry"/>
                </mxCell>
                <mxCell id="N4e8Z_NztzWRrxCLNAbO-32" value="" style="ellipse;whiteSpace=wrap;html=1;aspect=fixed;strokeWidth=2;fillColor=#E6E6E6;strokeColor=#000000;" vertex="1" parent="Y1hucedNhhdVeCLfP3kg-1">
                    <mxGeometry x="927.5" y="144" width="30" height="30" as="geometry"/>
                </mxCell>
                <mxCell id="N4e8Z_NztzWRrxCLNAbO-36" style="rounded=0;orthogonalLoop=1;jettySize=auto;html=1;exitX=1;exitY=0.5;exitDx=0;exitDy=0;strokeWidth=2;endArrow=block;endFill=1;strokeColor=#FF0000;entryX=0;entryY=0.5;entryDx=0;entryDy=0;" edge="1" source="N4e8Z_NztzWRrxCLNAbO-39" target="N4e8Z_NztzWRrxCLNAbO-43" parent="Y1hucedNhhdVeCLfP3kg-1">
                    <mxGeometry relative="1" as="geometry">
                        <mxPoint x="677.5" y="455" as="targetPoint"/>
                    </mxGeometry>
                </mxCell>
                <mxCell id="N4e8Z_NztzWRrxCLNAbO-39" value="&lt;font style=&quot;font-size: 24px;&quot;&gt;1&lt;/font&gt;" style="rounded=0;whiteSpace=wrap;html=1;fillColor=#FFCCCC;strokeColor=#FF0000;fontColor=#FF0000;strokeWidth=2;" vertex="1" parent="Y1hucedNhhdVeCLfP3kg-1">
                    <mxGeometry x="727.5" y="325" width="65" height="40" as="geometry"/>
                </mxCell>
                <mxCell id="N4e8Z_NztzWRrxCLNAbO-40" value="" style="endArrow=none;html=1;rounded=0;strokeWidth=2;exitX=0.25;exitY=0;exitDx=0;exitDy=0;strokeColor=#FF0000;edgeStyle=orthogonalEdgeStyle;" edge="1" source="N4e8Z_NztzWRrxCLNAbO-39" parent="Y1hucedNhhdVeCLfP3kg-1">
                    <mxGeometry width="50" height="50" relative="1" as="geometry">
                        <mxPoint x="817.5" y="345" as="sourcePoint"/>
                        <mxPoint x="737.5" y="315" as="targetPoint"/>
                        <Array as="points">
                            <mxPoint x="743.5" y="315"/>
                        </Array>
                    </mxGeometry>
                </mxCell>
                <mxCell id="N4e8Z_NztzWRrxCLNAbO-41" value="" style="endArrow=block;html=1;rounded=0;strokeWidth=2;entryX=0;entryY=0.5;entryDx=0;entryDy=0;endFill=1;strokeColor=#FF0000;edgeStyle=orthogonalEdgeStyle;exitX=0.719;exitY=0.585;exitDx=0;exitDy=0;exitPerimeter=0;" edge="1" target="N4e8Z_NztzWRrxCLNAbO-39" parent="Y1hucedNhhdVeCLfP3kg-1">
                    <mxGeometry width="50" height="50" relative="1" as="geometry">
                        <mxPoint x="737.5" y="315" as="sourcePoint"/>
                        <mxPoint x="867.5" y="295" as="targetPoint"/>
                        <Array as="points">
                            <mxPoint x="710" y="315"/>
                            <mxPoint x="710" y="345"/>
                        </Array>
                    </mxGeometry>
                </mxCell>
                <mxCell id="N4e8Z_NztzWRrxCLNAbO-42" style="rounded=0;orthogonalLoop=1;jettySize=auto;html=1;exitX=1;exitY=0.5;exitDx=0;exitDy=0;entryX=0.5;entryY=0;entryDx=0;entryDy=0;strokeColor=#FF8000;endArrow=block;endFill=1;strokeWidth=2;edgeStyle=orthogonalEdgeStyle;" edge="1" source="N4e8Z_NztzWRrxCLNAbO-43" target="N4e8Z_NztzWRrxCLNAbO-48" parent="Y1hucedNhhdVeCLfP3kg-1">
                    <mxGeometry relative="1" as="geometry"/>
                </mxCell>
                <mxCell id="N4e8Z_NztzWRrxCLNAbO-43" value="&lt;font style=&quot;font-size: 24px;&quot;&gt;2&lt;/font&gt;" style="rounded=0;whiteSpace=wrap;html=1;fillColor=#FFE6CC;strokeColor=#FF8000;fontColor=#FF8000;strokeWidth=2;" vertex="1" parent="Y1hucedNhhdVeCLfP3kg-1">
                    <mxGeometry x="827.5" y="325" width="65" height="40" as="geometry"/>
                </mxCell>
                <mxCell id="N4e8Z_NztzWRrxCLNAbO-44" style="edgeStyle=orthogonalEdgeStyle;rounded=0;orthogonalLoop=1;jettySize=auto;html=1;exitX=1;exitY=0.5;exitDx=0;exitDy=0;entryX=0;entryY=0.5;entryDx=0;entryDy=0;strokeWidth=2;strokeColor=#FFFF00;endArrow=block;endFill=1;" edge="1" source="N4e8Z_NztzWRrxCLNAbO-45" target="N4e8Z_NztzWRrxCLNAbO-48" parent="Y1hucedNhhdVeCLfP3kg-1">
                    <mxGeometry relative="1" as="geometry"/>
                </mxCell>
                <mxCell id="N4e8Z_NztzWRrxCLNAbO-45" value="&lt;span style=&quot;font-size: 24px;&quot;&gt;3&lt;/span&gt;" style="rounded=0;whiteSpace=wrap;html=1;fillColor=#FFFFCC;strokeColor=#FFFF00;fontColor=#FFFF00;strokeWidth=2;" vertex="1" parent="Y1hucedNhhdVeCLfP3kg-1">
                    <mxGeometry x="827.5" y="384" width="65" height="40" as="geometry"/>
                </mxCell>
                <mxCell id="N4e8Z_NztzWRrxCLNAbO-46" style="edgeStyle=orthogonalEdgeStyle;rounded=0;orthogonalLoop=1;jettySize=auto;html=1;exitX=1;exitY=0.5;exitDx=0;exitDy=0;strokeWidth=2;endArrow=block;endFill=1;strokeColor=#80FF00;entryX=0.5;entryY=1;entryDx=0;entryDy=0;" edge="1" source="N4e8Z_NztzWRrxCLNAbO-47" target="N4e8Z_NztzWRrxCLNAbO-48" parent="Y1hucedNhhdVeCLfP3kg-1">
                    <mxGeometry relative="1" as="geometry">
                        <mxPoint x="917.5" y="434" as="targetPoint"/>
                    </mxGeometry>
                </mxCell>
                <mxCell id="N4e8Z_NztzWRrxCLNAbO-47" value="&lt;span style=&quot;font-size: 24px;&quot;&gt;4&lt;/span&gt;" style="rounded=0;whiteSpace=wrap;html=1;fillColor=#E6FFCC;strokeColor=#80FF00;fontColor=#80FF00;strokeWidth=2;" vertex="1" parent="Y1hucedNhhdVeCLfP3kg-1">
                    <mxGeometry x="827.5" y="445" width="65" height="40" as="geometry"/>
                </mxCell>
                <mxCell id="N4e8Z_NztzWRrxCLNAbO-48" value="" style="ellipse;whiteSpace=wrap;html=1;aspect=fixed;strokeWidth=2;fillColor=#E6E6E6;strokeColor=#000000;" vertex="1" parent="Y1hucedNhhdVeCLfP3kg-1">
                    <mxGeometry x="927.5" y="389" width="30" height="30" as="geometry"/>
                </mxCell>
                <mxCell id="N4e8Z_NztzWRrxCLNAbO-49" style="rounded=0;orthogonalLoop=1;jettySize=auto;html=1;exitX=1;exitY=0.5;exitDx=0;exitDy=0;strokeWidth=2;endArrow=block;endFill=1;strokeColor=#FF0000;entryX=0.5;entryY=0;entryDx=0;entryDy=0;edgeStyle=orthogonalEdgeStyle;" edge="1" source="N4e8Z_NztzWRrxCLNAbO-50" target="N4e8Z_NztzWRrxCLNAbO-59" parent="Y1hucedNhhdVeCLfP3kg-1">
                    <mxGeometry relative="1" as="geometry">
                        <mxPoint x="990.07" y="610" as="targetPoint"/>
                    </mxGeometry>
                </mxCell>
                <mxCell id="N4e8Z_NztzWRrxCLNAbO-50" value="&lt;font style=&quot;font-size: 24px;&quot;&gt;1&lt;/font&gt;" style="rounded=0;whiteSpace=wrap;html=1;fillColor=#FFCCCC;strokeColor=#FF0000;fontColor=#FF0000;strokeWidth=2;" vertex="1" parent="Y1hucedNhhdVeCLfP3kg-1">
                    <mxGeometry x="845.07" y="550" width="65" height="40" as="geometry"/>
                </mxCell>
                <mxCell id="N4e8Z_NztzWRrxCLNAbO-51" value="" style="endArrow=none;html=1;rounded=0;strokeWidth=2;exitX=0.25;exitY=0;exitDx=0;exitDy=0;strokeColor=#FF0000;edgeStyle=orthogonalEdgeStyle;" edge="1" source="N4e8Z_NztzWRrxCLNAbO-50" parent="Y1hucedNhhdVeCLfP3kg-1">
                    <mxGeometry width="50" height="50" relative="1" as="geometry">
                        <mxPoint x="935.07" y="570" as="sourcePoint"/>
                        <mxPoint x="855.07" y="540" as="targetPoint"/>
                        <Array as="points">
                            <mxPoint x="861.07" y="540"/>
                        </Array>
                    </mxGeometry>
                </mxCell>
                <mxCell id="N4e8Z_NztzWRrxCLNAbO-52" value="" style="endArrow=block;html=1;rounded=0;strokeWidth=2;entryX=0;entryY=0.5;entryDx=0;entryDy=0;endFill=1;strokeColor=#FF0000;edgeStyle=orthogonalEdgeStyle;exitX=0.719;exitY=0.585;exitDx=0;exitDy=0;exitPerimeter=0;" edge="1" target="N4e8Z_NztzWRrxCLNAbO-50" parent="Y1hucedNhhdVeCLfP3kg-1">
                    <mxGeometry width="50" height="50" relative="1" as="geometry">
                        <mxPoint x="855.07" y="540" as="sourcePoint"/>
                        <mxPoint x="985.07" y="520" as="targetPoint"/>
                        <Array as="points">
                            <mxPoint x="827.57" y="540"/>
                            <mxPoint x="827.57" y="570"/>
                        </Array>
                    </mxGeometry>
                </mxCell>
                <mxCell id="N4e8Z_NztzWRrxCLNAbO-53" style="rounded=0;orthogonalLoop=1;jettySize=auto;html=1;exitX=1;exitY=0.5;exitDx=0;exitDy=0;entryX=0;entryY=0;entryDx=0;entryDy=0;strokeColor=#FF8000;endArrow=block;endFill=1;strokeWidth=2;edgeStyle=orthogonalEdgeStyle;" edge="1" source="N4e8Z_NztzWRrxCLNAbO-54" target="N4e8Z_NztzWRrxCLNAbO-59" parent="Y1hucedNhhdVeCLfP3kg-1">
                    <mxGeometry relative="1" as="geometry"/>
                </mxCell>
                <mxCell id="N4e8Z_NztzWRrxCLNAbO-54" value="&lt;font style=&quot;font-size: 24px;&quot;&gt;2&lt;/font&gt;" style="rounded=0;whiteSpace=wrap;html=1;fillColor=#FFE6CC;strokeColor=#FF8000;fontColor=#FF8000;strokeWidth=2;" vertex="1" parent="Y1hucedNhhdVeCLfP3kg-1">
                    <mxGeometry x="845.08" y="610" width="65" height="40" as="geometry"/>
                </mxCell>
                <mxCell id="N4e8Z_NztzWRrxCLNAbO-55" style="edgeStyle=orthogonalEdgeStyle;rounded=0;orthogonalLoop=1;jettySize=auto;html=1;exitX=1;exitY=0.5;exitDx=0;exitDy=0;strokeWidth=2;strokeColor=#FFFF00;endArrow=block;endFill=1;entryX=0;entryY=1;entryDx=0;entryDy=0;" edge="1" source="N4e8Z_NztzWRrxCLNAbO-56" target="N4e8Z_NztzWRrxCLNAbO-59" parent="Y1hucedNhhdVeCLfP3kg-1">
                    <mxGeometry relative="1" as="geometry">
                        <mxPoint x="940.07" y="710" as="targetPoint"/>
                    </mxGeometry>
                </mxCell>
                <mxCell id="N4e8Z_NztzWRrxCLNAbO-56" value="&lt;span style=&quot;font-size: 24px;&quot;&gt;3&lt;/span&gt;" style="rounded=0;whiteSpace=wrap;html=1;fillColor=#FFFFCC;strokeColor=#FFFF00;fontColor=#FFFF00;strokeWidth=2;" vertex="1" parent="Y1hucedNhhdVeCLfP3kg-1">
                    <mxGeometry x="845.08" y="669" width="65" height="40" as="geometry"/>
                </mxCell>
                <mxCell id="N4e8Z_NztzWRrxCLNAbO-57" style="edgeStyle=orthogonalEdgeStyle;rounded=0;orthogonalLoop=1;jettySize=auto;html=1;exitX=1;exitY=0.5;exitDx=0;exitDy=0;strokeWidth=2;endArrow=block;endFill=1;strokeColor=#80FF00;entryX=0.5;entryY=1;entryDx=0;entryDy=0;" edge="1" source="N4e8Z_NztzWRrxCLNAbO-58" target="N4e8Z_NztzWRrxCLNAbO-59" parent="Y1hucedNhhdVeCLfP3kg-1">
                    <mxGeometry relative="1" as="geometry">
                        <mxPoint x="935.08" y="719" as="targetPoint"/>
                    </mxGeometry>
                </mxCell>
                <mxCell id="N4e8Z_NztzWRrxCLNAbO-58" value="&lt;span style=&quot;font-size: 24px;&quot;&gt;4&lt;/span&gt;" style="rounded=0;whiteSpace=wrap;html=1;fillColor=#E6FFCC;strokeColor=#80FF00;fontColor=#80FF00;strokeWidth=2;" vertex="1" parent="Y1hucedNhhdVeCLfP3kg-1">
                    <mxGeometry x="845.08" y="730" width="65" height="40" as="geometry"/>
                </mxCell>
                <mxCell id="N4e8Z_NztzWRrxCLNAbO-59" value="" style="ellipse;whiteSpace=wrap;html=1;aspect=fixed;strokeWidth=2;fillColor=#E6E6E6;strokeColor=#000000;" vertex="1" parent="Y1hucedNhhdVeCLfP3kg-1">
                    <mxGeometry x="945.08" y="645" width="30" height="30" as="geometry"/>
                </mxCell>
            </root>
        </mxGraphModel>
    </diagram>
    <diagram id="WFhWQkQgzAiasD4bqo8n" name="vertical">
        <mxGraphModel dx="2937" dy="1534" grid="1" gridSize="10" guides="1" tooltips="1" connect="1" arrows="1" fold="1" page="1" pageScale="1" pageWidth="1169" pageHeight="827" math="0" shadow="0">
            <root>
                <mxCell id="0"/>
                <mxCell id="1" parent="0"/>
                <mxCell id="ZE_xg7tjZguRDnYpf1Pi-15" style="edgeStyle=orthogonalEdgeStyle;rounded=0;orthogonalLoop=1;jettySize=auto;html=1;exitX=0.5;exitY=1;exitDx=0;exitDy=0;entryX=0.5;entryY=0;entryDx=0;entryDy=0;strokeWidth=2;endArrow=block;endFill=1;strokeColor=#FF0000;" edge="1" parent="1" source="ZE_xg7tjZguRDnYpf1Pi-9" target="ZE_xg7tjZguRDnYpf1Pi-14">
                    <mxGeometry relative="1" as="geometry"/>
                </mxCell>
                <mxCell id="ZE_xg7tjZguRDnYpf1Pi-9" value="&lt;font style=&quot;font-size: 24px;&quot;&gt;1&lt;/font&gt;" style="rounded=0;whiteSpace=wrap;html=1;fillColor=#FFCCCC;strokeColor=#FF0000;fontColor=#FF0000;strokeWidth=2;" vertex="1" parent="1">
                    <mxGeometry x="97.5" y="80" width="65" height="40" as="geometry"/>
                </mxCell>
                <mxCell id="ZE_xg7tjZguRDnYpf1Pi-10" value="" style="endArrow=none;html=1;rounded=0;strokeWidth=2;exitX=1;exitY=0.5;exitDx=0;exitDy=0;edgeStyle=orthogonalEdgeStyle;strokeColor=#FF0000;" edge="1" parent="1" source="ZE_xg7tjZguRDnYpf1Pi-9" target="ZE_xg7tjZguRDnYpf1Pi-12">
                    <mxGeometry width="50" height="50" relative="1" as="geometry">
                        <mxPoint x="187.5" y="100" as="sourcePoint"/>
                        <mxPoint x="177.5" y="70" as="targetPoint"/>
                        <Array as="points">
                            <mxPoint x="177.5" y="100"/>
                        </Array>
                    </mxGeometry>
                </mxCell>
                <mxCell id="ZE_xg7tjZguRDnYpf1Pi-11" value="" style="endArrow=block;html=1;rounded=0;strokeWidth=2;edgeStyle=orthogonalEdgeStyle;entryX=0.5;entryY=0;entryDx=0;entryDy=0;endFill=1;strokeColor=#FF0000;" edge="1" parent="1" source="ZE_xg7tjZguRDnYpf1Pi-12" target="ZE_xg7tjZguRDnYpf1Pi-9">
                    <mxGeometry width="50" height="50" relative="1" as="geometry">
                        <mxPoint x="147.5" y="50" as="sourcePoint"/>
                        <mxPoint x="237.5" y="50" as="targetPoint"/>
                        <Array as="points">
                            <mxPoint x="177.5" y="60"/>
                            <mxPoint x="130.5" y="60"/>
                        </Array>
                    </mxGeometry>
                </mxCell>
                <mxCell id="ZE_xg7tjZguRDnYpf1Pi-12" value="" style="shape=waypoint;sketch=0;fillStyle=solid;size=6;pointerEvents=1;points=[];fillColor=none;resizable=0;rotatable=0;perimeter=centerPerimeter;snapToPoint=1;strokeWidth=0;strokeColor=none;" vertex="1" parent="1">
                    <mxGeometry x="167.5" y="60" width="20" height="20" as="geometry"/>
                </mxCell>
                <mxCell id="ZE_xg7tjZguRDnYpf1Pi-17" style="edgeStyle=orthogonalEdgeStyle;rounded=0;orthogonalLoop=1;jettySize=auto;html=1;exitX=0.5;exitY=1;exitDx=0;exitDy=0;entryX=0.5;entryY=0;entryDx=0;entryDy=0;strokeColor=#FF8000;endArrow=block;endFill=1;strokeWidth=2;" edge="1" parent="1" source="ZE_xg7tjZguRDnYpf1Pi-14" target="ZE_xg7tjZguRDnYpf1Pi-16">
                    <mxGeometry relative="1" as="geometry"/>
                </mxCell>
                <mxCell id="ZE_xg7tjZguRDnYpf1Pi-14" value="&lt;font style=&quot;font-size: 24px;&quot;&gt;2&lt;/font&gt;" style="rounded=0;whiteSpace=wrap;html=1;fillColor=#FFE6CC;strokeColor=#FF8000;fontColor=#FF8000;strokeWidth=2;" vertex="1" parent="1">
                    <mxGeometry x="97.5" y="150" width="65" height="40" as="geometry"/>
                </mxCell>
                <mxCell id="ZE_xg7tjZguRDnYpf1Pi-19" style="edgeStyle=orthogonalEdgeStyle;rounded=0;orthogonalLoop=1;jettySize=auto;html=1;exitX=0.5;exitY=1;exitDx=0;exitDy=0;entryX=0.5;entryY=0;entryDx=0;entryDy=0;strokeWidth=2;strokeColor=#FFFF00;endArrow=block;endFill=1;" edge="1" parent="1" source="ZE_xg7tjZguRDnYpf1Pi-16" target="ZE_xg7tjZguRDnYpf1Pi-18">
                    <mxGeometry relative="1" as="geometry"/>
                </mxCell>
                <mxCell id="ZE_xg7tjZguRDnYpf1Pi-16" value="&lt;span style=&quot;font-size: 24px;&quot;&gt;3&lt;/span&gt;" style="rounded=0;whiteSpace=wrap;html=1;fillColor=#FFFFCC;strokeColor=#FFFF00;fontColor=#FFFF00;strokeWidth=2;" vertex="1" parent="1">
                    <mxGeometry x="97.5" y="220" width="65" height="40" as="geometry"/>
                </mxCell>
                <mxCell id="ZE_xg7tjZguRDnYpf1Pi-21" style="edgeStyle=orthogonalEdgeStyle;rounded=0;orthogonalLoop=1;jettySize=auto;html=1;exitX=0.5;exitY=1;exitDx=0;exitDy=0;entryX=0.5;entryY=0;entryDx=0;entryDy=0;strokeWidth=2;endArrow=block;endFill=1;strokeColor=#80FF00;" edge="1" parent="1" source="ZE_xg7tjZguRDnYpf1Pi-18" target="ZE_xg7tjZguRDnYpf1Pi-20">
                    <mxGeometry relative="1" as="geometry"/>
                </mxCell>
                <mxCell id="ZE_xg7tjZguRDnYpf1Pi-18" value="&lt;span style=&quot;font-size: 24px;&quot;&gt;4&lt;/span&gt;" style="rounded=0;whiteSpace=wrap;html=1;fillColor=#E6FFCC;strokeColor=#80FF00;fontColor=#80FF00;strokeWidth=2;" vertex="1" parent="1">
                    <mxGeometry x="97.5" y="290" width="65" height="40" as="geometry"/>
                </mxCell>
                <mxCell id="ZE_xg7tjZguRDnYpf1Pi-20" value="&lt;font style=&quot;font-size: 24px;&quot;&gt;OUT&lt;/font&gt;" style="rounded=0;whiteSpace=wrap;html=1;strokeWidth=2;" vertex="1" parent="1">
                    <mxGeometry x="90" y="360" width="80" height="40" as="geometry"/>
                </mxCell>
                <mxCell id="ZE_xg7tjZguRDnYpf1Pi-22" style="rounded=0;orthogonalLoop=1;jettySize=auto;html=1;exitX=0.5;exitY=1;exitDx=0;exitDy=0;strokeWidth=2;endArrow=block;endFill=1;strokeColor=#FF0000;entryX=0;entryY=0.5;entryDx=0;entryDy=0;edgeStyle=elbowEdgeStyle;" edge="1" source="ZE_xg7tjZguRDnYpf1Pi-23" target="ZE_xg7tjZguRDnYpf1Pi-30" parent="1">
                    <mxGeometry relative="1" as="geometry">
                        <mxPoint x="301.25" y="220" as="targetPoint"/>
                        <Array as="points">
                            <mxPoint x="301" y="210"/>
                        </Array>
                    </mxGeometry>
                </mxCell>
                <mxCell id="ZE_xg7tjZguRDnYpf1Pi-23" value="&lt;font style=&quot;font-size: 24px;&quot;&gt;1&lt;/font&gt;" style="rounded=0;whiteSpace=wrap;html=1;fillColor=#FFCCCC;strokeColor=#FF0000;fontColor=#FF0000;strokeWidth=2;" vertex="1" parent="1">
                    <mxGeometry x="268.75" y="150" width="65" height="40" as="geometry"/>
                </mxCell>
                <mxCell id="ZE_xg7tjZguRDnYpf1Pi-24" value="" style="endArrow=none;html=1;rounded=0;strokeWidth=2;exitX=1;exitY=0.5;exitDx=0;exitDy=0;edgeStyle=orthogonalEdgeStyle;strokeColor=#FF0000;" edge="1" source="ZE_xg7tjZguRDnYpf1Pi-23" target="ZE_xg7tjZguRDnYpf1Pi-26" parent="1">
                    <mxGeometry width="50" height="50" relative="1" as="geometry">
                        <mxPoint x="358.75" y="170" as="sourcePoint"/>
                        <mxPoint x="348.75" y="140" as="targetPoint"/>
                        <Array as="points">
                            <mxPoint x="348.75" y="170"/>
                        </Array>
                    </mxGeometry>
                </mxCell>
                <mxCell id="ZE_xg7tjZguRDnYpf1Pi-25" value="" style="endArrow=block;html=1;rounded=0;strokeWidth=2;edgeStyle=orthogonalEdgeStyle;entryX=0.5;entryY=0;entryDx=0;entryDy=0;endFill=1;strokeColor=#FF0000;" edge="1" source="ZE_xg7tjZguRDnYpf1Pi-26" target="ZE_xg7tjZguRDnYpf1Pi-23" parent="1">
                    <mxGeometry width="50" height="50" relative="1" as="geometry">
                        <mxPoint x="318.75" y="120" as="sourcePoint"/>
                        <mxPoint x="408.75" y="120" as="targetPoint"/>
                        <Array as="points">
                            <mxPoint x="348.75" y="130"/>
                            <mxPoint x="301.75" y="130"/>
                        </Array>
                    </mxGeometry>
                </mxCell>
                <mxCell id="ZE_xg7tjZguRDnYpf1Pi-26" value="" style="shape=waypoint;sketch=0;fillStyle=solid;size=6;pointerEvents=1;points=[];fillColor=none;resizable=0;rotatable=0;perimeter=centerPerimeter;snapToPoint=1;strokeWidth=0;strokeColor=none;" vertex="1" parent="1">
                    <mxGeometry x="338.75" y="130" width="20" height="20" as="geometry"/>
                </mxCell>
                <mxCell id="ZE_xg7tjZguRDnYpf1Pi-27" style="edgeStyle=orthogonalEdgeStyle;rounded=0;orthogonalLoop=1;jettySize=auto;html=1;exitX=0.5;exitY=1;exitDx=0;exitDy=0;entryX=1;entryY=0.5;entryDx=0;entryDy=0;strokeColor=#FF8000;endArrow=block;endFill=1;strokeWidth=2;" edge="1" source="ZE_xg7tjZguRDnYpf1Pi-28" target="ZE_xg7tjZguRDnYpf1Pi-30" parent="1">
                    <mxGeometry relative="1" as="geometry">
                        <mxPoint x="403.75" y="220" as="targetPoint"/>
                        <Array as="points">
                            <mxPoint x="404" y="210"/>
                            <mxPoint x="404" y="240"/>
                        </Array>
                    </mxGeometry>
                </mxCell>
                <mxCell id="ZE_xg7tjZguRDnYpf1Pi-28" value="&lt;font style=&quot;font-size: 24px;&quot;&gt;2&lt;/font&gt;" style="rounded=0;whiteSpace=wrap;html=1;fillColor=#FFE6CC;strokeColor=#FF8000;fontColor=#FF8000;strokeWidth=2;" vertex="1" parent="1">
                    <mxGeometry x="371.25" y="150" width="65" height="40" as="geometry"/>
                </mxCell>
                <mxCell id="ZE_xg7tjZguRDnYpf1Pi-29" style="edgeStyle=orthogonalEdgeStyle;rounded=0;orthogonalLoop=1;jettySize=auto;html=1;exitX=0.5;exitY=1;exitDx=0;exitDy=0;entryX=0.5;entryY=0;entryDx=0;entryDy=0;strokeWidth=2;strokeColor=#FFFF00;endArrow=block;endFill=1;" edge="1" source="ZE_xg7tjZguRDnYpf1Pi-30" target="ZE_xg7tjZguRDnYpf1Pi-32" parent="1">
                    <mxGeometry relative="1" as="geometry"/>
                </mxCell>
                <mxCell id="ZE_xg7tjZguRDnYpf1Pi-30" value="&lt;span style=&quot;font-size: 24px;&quot;&gt;3&lt;/span&gt;" style="rounded=0;whiteSpace=wrap;html=1;fillColor=#FFFFCC;strokeColor=#FFFF00;fontColor=#FFFF00;strokeWidth=2;" vertex="1" parent="1">
                    <mxGeometry x="320" y="220" width="65" height="40" as="geometry"/>
                </mxCell>
                <mxCell id="ZE_xg7tjZguRDnYpf1Pi-31" style="edgeStyle=orthogonalEdgeStyle;rounded=0;orthogonalLoop=1;jettySize=auto;html=1;exitX=0.5;exitY=1;exitDx=0;exitDy=0;entryX=0.5;entryY=0;entryDx=0;entryDy=0;strokeWidth=2;endArrow=block;endFill=1;strokeColor=#80FF00;" edge="1" source="ZE_xg7tjZguRDnYpf1Pi-32" target="ZE_xg7tjZguRDnYpf1Pi-33" parent="1">
                    <mxGeometry relative="1" as="geometry"/>
                </mxCell>
                <mxCell id="ZE_xg7tjZguRDnYpf1Pi-32" value="&lt;span style=&quot;font-size: 24px;&quot;&gt;4&lt;/span&gt;" style="rounded=0;whiteSpace=wrap;html=1;fillColor=#E6FFCC;strokeColor=#80FF00;fontColor=#80FF00;strokeWidth=2;" vertex="1" parent="1">
                    <mxGeometry x="320" y="290" width="65" height="40" as="geometry"/>
                </mxCell>
                <mxCell id="ZE_xg7tjZguRDnYpf1Pi-33" value="&lt;font style=&quot;font-size: 24px;&quot;&gt;OUT&lt;/font&gt;" style="rounded=0;whiteSpace=wrap;html=1;strokeWidth=2;" vertex="1" parent="1">
                    <mxGeometry x="312.5" y="360" width="80" height="40" as="geometry"/>
                </mxCell>
                <mxCell id="ZE_xg7tjZguRDnYpf1Pi-35" style="rounded=0;orthogonalLoop=1;jettySize=auto;html=1;exitX=0.5;exitY=1;exitDx=0;exitDy=0;strokeWidth=2;endArrow=block;endFill=1;strokeColor=#FF0000;entryX=0;entryY=0.5;entryDx=0;entryDy=0;edgeStyle=elbowEdgeStyle;" edge="1" source="ZE_xg7tjZguRDnYpf1Pi-36" target="ZE_xg7tjZguRDnYpf1Pi-45" parent="1">
                    <mxGeometry relative="1" as="geometry">
                        <mxPoint x="533.5" y="220" as="targetPoint"/>
                        <Array as="points">
                            <mxPoint x="534" y="290"/>
                        </Array>
                    </mxGeometry>
                </mxCell>
                <mxCell id="ZE_xg7tjZguRDnYpf1Pi-36" value="&lt;font style=&quot;font-size: 24px;&quot;&gt;1&lt;/font&gt;" style="rounded=0;whiteSpace=wrap;html=1;fillColor=#FFCCCC;strokeColor=#FF0000;fontColor=#FF0000;strokeWidth=2;" vertex="1" parent="1">
                    <mxGeometry x="501" y="220" width="65" height="40" as="geometry"/>
                </mxCell>
                <mxCell id="ZE_xg7tjZguRDnYpf1Pi-37" value="" style="endArrow=none;html=1;rounded=0;strokeWidth=2;exitX=1;exitY=0.5;exitDx=0;exitDy=0;edgeStyle=orthogonalEdgeStyle;strokeColor=#FF0000;" edge="1" source="ZE_xg7tjZguRDnYpf1Pi-36" target="ZE_xg7tjZguRDnYpf1Pi-39" parent="1">
                    <mxGeometry width="50" height="50" relative="1" as="geometry">
                        <mxPoint x="591" y="240" as="sourcePoint"/>
                        <mxPoint x="581" y="210" as="targetPoint"/>
                        <Array as="points">
                            <mxPoint x="581" y="240"/>
                        </Array>
                    </mxGeometry>
                </mxCell>
                <mxCell id="ZE_xg7tjZguRDnYpf1Pi-38" value="" style="endArrow=block;html=1;rounded=0;strokeWidth=2;edgeStyle=orthogonalEdgeStyle;entryX=0.5;entryY=0;entryDx=0;entryDy=0;endFill=1;strokeColor=#FF0000;" edge="1" source="ZE_xg7tjZguRDnYpf1Pi-39" target="ZE_xg7tjZguRDnYpf1Pi-36" parent="1">
                    <mxGeometry width="50" height="50" relative="1" as="geometry">
                        <mxPoint x="551" y="190" as="sourcePoint"/>
                        <mxPoint x="641" y="190" as="targetPoint"/>
                        <Array as="points">
                            <mxPoint x="581" y="200"/>
                            <mxPoint x="534" y="200"/>
                        </Array>
                    </mxGeometry>
                </mxCell>
                <mxCell id="ZE_xg7tjZguRDnYpf1Pi-39" value="" style="shape=waypoint;sketch=0;fillStyle=solid;size=6;pointerEvents=1;points=[];fillColor=none;resizable=0;rotatable=0;perimeter=centerPerimeter;snapToPoint=1;strokeWidth=0;strokeColor=none;" vertex="1" parent="1">
                    <mxGeometry x="571" y="200" width="20" height="20" as="geometry"/>
                </mxCell>
                <mxCell id="ZE_xg7tjZguRDnYpf1Pi-40" style="rounded=0;orthogonalLoop=1;jettySize=auto;html=1;exitX=0.5;exitY=1;exitDx=0;exitDy=0;entryX=0.5;entryY=0;entryDx=0;entryDy=0;strokeColor=#FF8000;endArrow=block;endFill=1;strokeWidth=2;" edge="1" source="ZE_xg7tjZguRDnYpf1Pi-41" target="ZE_xg7tjZguRDnYpf1Pi-43" parent="1">
                    <mxGeometry relative="1" as="geometry">
                        <mxPoint x="636" y="220" as="targetPoint"/>
                    </mxGeometry>
                </mxCell>
                <mxCell id="ZE_xg7tjZguRDnYpf1Pi-41" value="&lt;font style=&quot;font-size: 24px;&quot;&gt;2&lt;/font&gt;" style="rounded=0;whiteSpace=wrap;html=1;fillColor=#FFE6CC;strokeColor=#FF8000;fontColor=#FF8000;strokeWidth=2;" vertex="1" parent="1">
                    <mxGeometry x="603.5" y="150" width="65" height="40" as="geometry"/>
                </mxCell>
                <mxCell id="ZE_xg7tjZguRDnYpf1Pi-42" style="edgeStyle=orthogonalEdgeStyle;rounded=0;orthogonalLoop=1;jettySize=auto;html=1;exitX=0.5;exitY=1;exitDx=0;exitDy=0;entryX=1;entryY=0.5;entryDx=0;entryDy=0;strokeWidth=2;strokeColor=#FFFF00;endArrow=block;endFill=1;" edge="1" source="ZE_xg7tjZguRDnYpf1Pi-43" target="ZE_xg7tjZguRDnYpf1Pi-45" parent="1">
                    <mxGeometry relative="1" as="geometry">
                        <Array as="points">
                            <mxPoint x="636" y="310"/>
                        </Array>
                    </mxGeometry>
                </mxCell>
                <mxCell id="ZE_xg7tjZguRDnYpf1Pi-43" value="&lt;span style=&quot;font-size: 24px;&quot;&gt;3&lt;/span&gt;" style="rounded=0;whiteSpace=wrap;html=1;fillColor=#FFFFCC;strokeColor=#FFFF00;fontColor=#FFFF00;strokeWidth=2;" vertex="1" parent="1">
                    <mxGeometry x="603.5" y="220" width="65" height="40" as="geometry"/>
                </mxCell>
                <mxCell id="ZE_xg7tjZguRDnYpf1Pi-44" style="edgeStyle=orthogonalEdgeStyle;rounded=0;orthogonalLoop=1;jettySize=auto;html=1;exitX=0.5;exitY=1;exitDx=0;exitDy=0;entryX=0.5;entryY=0;entryDx=0;entryDy=0;strokeWidth=2;endArrow=block;endFill=1;strokeColor=#80FF00;" edge="1" source="ZE_xg7tjZguRDnYpf1Pi-45" target="ZE_xg7tjZguRDnYpf1Pi-46" parent="1">
                    <mxGeometry relative="1" as="geometry"/>
                </mxCell>
                <mxCell id="ZE_xg7tjZguRDnYpf1Pi-45" value="&lt;span style=&quot;font-size: 24px;&quot;&gt;4&lt;/span&gt;" style="rounded=0;whiteSpace=wrap;html=1;fillColor=#E6FFCC;strokeColor=#80FF00;fontColor=#80FF00;strokeWidth=2;" vertex="1" parent="1">
                    <mxGeometry x="552.25" y="290" width="65" height="40" as="geometry"/>
                </mxCell>
                <mxCell id="ZE_xg7tjZguRDnYpf1Pi-46" value="&lt;font style=&quot;font-size: 24px;&quot;&gt;OUT&lt;/font&gt;" style="rounded=0;whiteSpace=wrap;html=1;strokeWidth=2;" vertex="1" parent="1">
                    <mxGeometry x="544.75" y="360" width="80" height="40" as="geometry"/>
                </mxCell>
                <mxCell id="ZE_xg7tjZguRDnYpf1Pi-59" style="rounded=0;orthogonalLoop=1;jettySize=auto;html=1;exitX=0.5;exitY=1;exitDx=0;exitDy=0;strokeWidth=2;endArrow=block;endFill=1;strokeColor=#FF0000;entryX=0.5;entryY=0;entryDx=0;entryDy=0;" edge="1" source="ZE_xg7tjZguRDnYpf1Pi-60" target="ZE_xg7tjZguRDnYpf1Pi-67" parent="1">
                    <mxGeometry relative="1" as="geometry">
                        <mxPoint x="78.75" y="550" as="targetPoint"/>
                    </mxGeometry>
                </mxCell>
                <mxCell id="ZE_xg7tjZguRDnYpf1Pi-60" value="&lt;font style=&quot;font-size: 24px;&quot;&gt;1&lt;/font&gt;" style="rounded=0;whiteSpace=wrap;html=1;fillColor=#FFCCCC;strokeColor=#FF0000;fontColor=#FF0000;strokeWidth=2;" vertex="1" parent="1">
                    <mxGeometry x="46.25" y="480" width="65" height="40" as="geometry"/>
                </mxCell>
                <mxCell id="ZE_xg7tjZguRDnYpf1Pi-61" value="" style="endArrow=none;html=1;rounded=0;strokeWidth=2;exitX=1;exitY=0.5;exitDx=0;exitDy=0;edgeStyle=orthogonalEdgeStyle;strokeColor=#FF0000;" edge="1" source="ZE_xg7tjZguRDnYpf1Pi-60" target="ZE_xg7tjZguRDnYpf1Pi-63" parent="1">
                    <mxGeometry width="50" height="50" relative="1" as="geometry">
                        <mxPoint x="136.25" y="500" as="sourcePoint"/>
                        <mxPoint x="126.25" y="470" as="targetPoint"/>
                        <Array as="points">
                            <mxPoint x="126.25" y="500"/>
                        </Array>
                    </mxGeometry>
                </mxCell>
                <mxCell id="ZE_xg7tjZguRDnYpf1Pi-62" value="" style="endArrow=block;html=1;rounded=0;strokeWidth=2;edgeStyle=orthogonalEdgeStyle;entryX=0.5;entryY=0;entryDx=0;entryDy=0;endFill=1;strokeColor=#FF0000;" edge="1" source="ZE_xg7tjZguRDnYpf1Pi-63" target="ZE_xg7tjZguRDnYpf1Pi-60" parent="1">
                    <mxGeometry width="50" height="50" relative="1" as="geometry">
                        <mxPoint x="96.25" y="450" as="sourcePoint"/>
                        <mxPoint x="186.25" y="450" as="targetPoint"/>
                        <Array as="points">
                            <mxPoint x="126.25" y="460"/>
                            <mxPoint x="79.25" y="460"/>
                        </Array>
                    </mxGeometry>
                </mxCell>
                <mxCell id="ZE_xg7tjZguRDnYpf1Pi-63" value="" style="shape=waypoint;sketch=0;fillStyle=solid;size=6;pointerEvents=1;points=[];fillColor=none;resizable=0;rotatable=0;perimeter=centerPerimeter;snapToPoint=1;strokeWidth=0;strokeColor=none;" vertex="1" parent="1">
                    <mxGeometry x="116.25" y="460" width="20" height="20" as="geometry"/>
                </mxCell>
                <mxCell id="ZE_xg7tjZguRDnYpf1Pi-64" style="edgeStyle=elbowEdgeStyle;rounded=0;orthogonalLoop=1;jettySize=auto;html=1;exitX=0.5;exitY=1;exitDx=0;exitDy=0;entryX=1;entryY=0.5;entryDx=0;entryDy=0;strokeColor=#FFFF00;endArrow=block;endFill=1;strokeWidth=2;" edge="1" source="ZE_xg7tjZguRDnYpf1Pi-65" target="ZE_xg7tjZguRDnYpf1Pi-69" parent="1">
                    <mxGeometry relative="1" as="geometry">
                        <mxPoint x="181.25" y="550" as="targetPoint"/>
                        <Array as="points">
                            <mxPoint x="181" y="620"/>
                        </Array>
                    </mxGeometry>
                </mxCell>
                <mxCell id="ZE_xg7tjZguRDnYpf1Pi-65" value="&lt;font style=&quot;font-size: 24px;&quot;&gt;3&lt;/font&gt;" style="rounded=0;whiteSpace=wrap;html=1;fillColor=#FFFFCC;strokeColor=#FFFF00;fontColor=#FFFF00;strokeWidth=2;" vertex="1" parent="1">
                    <mxGeometry x="148.75" y="550" width="65" height="40" as="geometry"/>
                </mxCell>
                <mxCell id="ZE_xg7tjZguRDnYpf1Pi-66" style="edgeStyle=elbowEdgeStyle;rounded=0;orthogonalLoop=1;jettySize=auto;html=1;exitX=0.5;exitY=1;exitDx=0;exitDy=0;entryX=0;entryY=0.5;entryDx=0;entryDy=0;strokeWidth=2;strokeColor=#FF8000;endArrow=block;endFill=1;" edge="1" source="ZE_xg7tjZguRDnYpf1Pi-67" target="ZE_xg7tjZguRDnYpf1Pi-69" parent="1">
                    <mxGeometry relative="1" as="geometry">
                        <Array as="points">
                            <mxPoint x="79" y="620"/>
                        </Array>
                    </mxGeometry>
                </mxCell>
                <mxCell id="ZE_xg7tjZguRDnYpf1Pi-67" value="&lt;span style=&quot;font-size: 24px;&quot;&gt;2&lt;/span&gt;" style="rounded=0;whiteSpace=wrap;html=1;fillColor=#FFE6CC;strokeColor=#FF8000;fontColor=#FF8000;strokeWidth=2;" vertex="1" parent="1">
                    <mxGeometry x="46.25" y="550" width="65" height="40" as="geometry"/>
                </mxCell>
                <mxCell id="ZE_xg7tjZguRDnYpf1Pi-68" style="edgeStyle=orthogonalEdgeStyle;rounded=0;orthogonalLoop=1;jettySize=auto;html=1;exitX=0.5;exitY=1;exitDx=0;exitDy=0;entryX=0.5;entryY=0;entryDx=0;entryDy=0;strokeWidth=2;endArrow=block;endFill=1;strokeColor=#80FF00;" edge="1" source="ZE_xg7tjZguRDnYpf1Pi-69" target="ZE_xg7tjZguRDnYpf1Pi-70" parent="1">
                    <mxGeometry relative="1" as="geometry"/>
                </mxCell>
                <mxCell id="ZE_xg7tjZguRDnYpf1Pi-69" value="&lt;span style=&quot;font-size: 24px;&quot;&gt;4&lt;/span&gt;" style="rounded=0;whiteSpace=wrap;html=1;fillColor=#E6FFCC;strokeColor=#80FF00;fontColor=#80FF00;strokeWidth=2;" vertex="1" parent="1">
                    <mxGeometry x="97.5" y="620" width="65" height="40" as="geometry"/>
                </mxCell>
                <mxCell id="ZE_xg7tjZguRDnYpf1Pi-70" value="&lt;font style=&quot;font-size: 24px;&quot;&gt;OUT&lt;/font&gt;" style="rounded=0;whiteSpace=wrap;html=1;strokeWidth=2;" vertex="1" parent="1">
                    <mxGeometry x="90" y="690" width="80" height="40" as="geometry"/>
                </mxCell>
                <mxCell id="ZE_xg7tjZguRDnYpf1Pi-71" style="rounded=0;orthogonalLoop=1;jettySize=auto;html=1;exitX=0.5;exitY=1;exitDx=0;exitDy=0;strokeWidth=2;endArrow=block;endFill=1;strokeColor=#FF0000;entryX=0.5;entryY=0;entryDx=0;entryDy=0;" edge="1" source="ZE_xg7tjZguRDnYpf1Pi-72" target="ZE_xg7tjZguRDnYpf1Pi-79" parent="1">
                    <mxGeometry relative="1" as="geometry">
                        <mxPoint x="322.5" y="620" as="targetPoint"/>
                    </mxGeometry>
                </mxCell>
                <mxCell id="ZE_xg7tjZguRDnYpf1Pi-72" value="&lt;font style=&quot;font-size: 24px;&quot;&gt;1&lt;/font&gt;" style="rounded=0;whiteSpace=wrap;html=1;fillColor=#FFCCCC;strokeColor=#FF0000;fontColor=#FF0000;strokeWidth=2;" vertex="1" parent="1">
                    <mxGeometry x="290" y="550" width="65" height="40" as="geometry"/>
                </mxCell>
                <mxCell id="ZE_xg7tjZguRDnYpf1Pi-73" value="" style="endArrow=none;html=1;rounded=0;strokeWidth=2;exitX=1;exitY=0.5;exitDx=0;exitDy=0;edgeStyle=orthogonalEdgeStyle;strokeColor=#FF0000;" edge="1" source="ZE_xg7tjZguRDnYpf1Pi-72" target="ZE_xg7tjZguRDnYpf1Pi-75" parent="1">
                    <mxGeometry width="50" height="50" relative="1" as="geometry">
                        <mxPoint x="380" y="570" as="sourcePoint"/>
                        <mxPoint x="370" y="540" as="targetPoint"/>
                        <Array as="points">
                            <mxPoint x="370" y="570"/>
                        </Array>
                    </mxGeometry>
                </mxCell>
                <mxCell id="ZE_xg7tjZguRDnYpf1Pi-74" value="" style="endArrow=block;html=1;rounded=0;strokeWidth=2;edgeStyle=orthogonalEdgeStyle;entryX=0.5;entryY=0;entryDx=0;entryDy=0;endFill=1;strokeColor=#FF0000;" edge="1" source="ZE_xg7tjZguRDnYpf1Pi-75" target="ZE_xg7tjZguRDnYpf1Pi-72" parent="1">
                    <mxGeometry width="50" height="50" relative="1" as="geometry">
                        <mxPoint x="340" y="520" as="sourcePoint"/>
                        <mxPoint x="430" y="520" as="targetPoint"/>
                        <Array as="points">
                            <mxPoint x="370" y="530"/>
                            <mxPoint x="323" y="530"/>
                        </Array>
                    </mxGeometry>
                </mxCell>
                <mxCell id="ZE_xg7tjZguRDnYpf1Pi-75" value="" style="shape=waypoint;sketch=0;fillStyle=solid;size=6;pointerEvents=1;points=[];fillColor=none;resizable=0;rotatable=0;perimeter=centerPerimeter;snapToPoint=1;strokeWidth=0;strokeColor=none;" vertex="1" parent="1">
                    <mxGeometry x="360" y="530" width="20" height="20" as="geometry"/>
                </mxCell>
                <mxCell id="ZE_xg7tjZguRDnYpf1Pi-76" style="rounded=0;orthogonalLoop=1;jettySize=auto;html=1;exitX=0.5;exitY=1;exitDx=0;exitDy=0;entryX=0.5;entryY=0;entryDx=0;entryDy=0;strokeColor=#FFFF00;endArrow=block;endFill=1;strokeWidth=2;" edge="1" source="ZE_xg7tjZguRDnYpf1Pi-77" target="ZE_xg7tjZguRDnYpf1Pi-81" parent="1">
                    <mxGeometry relative="1" as="geometry">
                        <mxPoint x="425" y="620" as="targetPoint"/>
                    </mxGeometry>
                </mxCell>
                <mxCell id="ZE_xg7tjZguRDnYpf1Pi-77" value="&lt;font style=&quot;font-size: 24px;&quot;&gt;3&lt;/font&gt;" style="rounded=0;whiteSpace=wrap;html=1;fillColor=#FFFFCC;strokeColor=#FFFF00;fontColor=#FFFF00;strokeWidth=2;" vertex="1" parent="1">
                    <mxGeometry x="392.5" y="550" width="65" height="40" as="geometry"/>
                </mxCell>
                <mxCell id="ZE_xg7tjZguRDnYpf1Pi-78" style="edgeStyle=elbowEdgeStyle;rounded=0;orthogonalLoop=1;jettySize=auto;html=1;exitX=0.5;exitY=1;exitDx=0;exitDy=0;strokeWidth=2;strokeColor=#FF8000;endArrow=block;endFill=1;entryX=0.25;entryY=0;entryDx=0;entryDy=0;" edge="1" source="ZE_xg7tjZguRDnYpf1Pi-79" target="ZE_xg7tjZguRDnYpf1Pi-82" parent="1">
                    <mxGeometry relative="1" as="geometry">
                        <Array as="points">
                            <mxPoint x="322.75" y="620"/>
                        </Array>
                    </mxGeometry>
                </mxCell>
                <mxCell id="ZE_xg7tjZguRDnYpf1Pi-79" value="&lt;span style=&quot;font-size: 24px;&quot;&gt;2&lt;/span&gt;" style="rounded=0;whiteSpace=wrap;html=1;fillColor=#FFE6CC;strokeColor=#FF8000;fontColor=#FF8000;strokeWidth=2;" vertex="1" parent="1">
                    <mxGeometry x="290" y="620" width="65" height="40" as="geometry"/>
                </mxCell>
                <mxCell id="ZE_xg7tjZguRDnYpf1Pi-80" style="edgeStyle=orthogonalEdgeStyle;rounded=0;orthogonalLoop=1;jettySize=auto;html=1;exitX=0.5;exitY=1;exitDx=0;exitDy=0;entryX=0.75;entryY=0;entryDx=0;entryDy=0;strokeWidth=2;endArrow=block;endFill=1;strokeColor=#80FF00;" edge="1" source="ZE_xg7tjZguRDnYpf1Pi-81" target="ZE_xg7tjZguRDnYpf1Pi-82" parent="1">
                    <mxGeometry relative="1" as="geometry"/>
                </mxCell>
                <mxCell id="ZE_xg7tjZguRDnYpf1Pi-81" value="&lt;span style=&quot;font-size: 24px;&quot;&gt;4&lt;/span&gt;" style="rounded=0;whiteSpace=wrap;html=1;fillColor=#E6FFCC;strokeColor=#80FF00;fontColor=#80FF00;strokeWidth=2;" vertex="1" parent="1">
                    <mxGeometry x="392.5" y="620" width="65" height="40" as="geometry"/>
                </mxCell>
                <mxCell id="ZE_xg7tjZguRDnYpf1Pi-82" value="&lt;font style=&quot;font-size: 24px;&quot;&gt;OUT&lt;/font&gt;" style="rounded=0;whiteSpace=wrap;html=1;strokeWidth=2;" vertex="1" parent="1">
                    <mxGeometry x="333.75" y="690" width="80" height="40" as="geometry"/>
                </mxCell>
            </root>
        </mxGraphModel>
    </diagram>
</mxfile>
